<svg viewBox="0 0 24 24" fill="none" xmlns="http://www.w3.org/2000/svg" class="BLR3ZrvQ8sBFu_QkGL4s" width="16" height="16"><path d="M13.022 23.702c5.684-3.356 8.477-8.704 8.975-14.734.032-2.78-.16-3.251-1.445-4.073A1102.988 1102.988 0 0 0 13.07.316c-.626-.385-1.316-.437-1.959-.052a1282.37 1282.37 0 0 0-8.06 4.963c-.722.455-1.027 1.206-1.043 2.098-.032.909.032 1.8.16 2.674.9 6.065 3.774 10.662 8.735 13.668.706.42 1.413.455 2.119.035Z" fill="#fbef35"></path><path d="M12 19c3.753 0 6.5-2.747 6.5-6.5S15.753 6 12 6s-6.5 2.747-6.5 6.5S8.247 19 12 19Zm0-1.35c-2.526 0-4.17-2.035-4.17-5.15S9.474 7.35 12 7.35s4.17 2.035 4.17 5.15-1.644 5.15-4.17 5.15Z" fill="#212121"></path><path fill-rule="evenodd" clip-rule="evenodd" d="M18.413 6.71a1 1 0 0 1 .177 1.403l-5.812 7.5a1 1 0 0 1-1.57.013L9.02 12.898a1 1 0 1 1 1.56-1.251l1.394 1.738 5.036-6.498a1 1 0 0 1 1.403-.177Z" fill="#fff"></path></svg>