<?xml version="1.0" ?><svg style="enable-background:new 0 0 960 960;" version="1.1" viewBox="0 0 960 960" xml:space="preserve" xmlns="http://www.w3.org/2000/svg" xmlns:xlink="http://www.w3.org/1999/xlink"><style type="text/css">
	.st0{display:none;}
	.st1{display:inline;opacity:0.93;}
	.st2{display:inline;fill:none;stroke:#000000;stroke-width:15;stroke-linecap:round;stroke-linejoin:round;stroke-miterlimit:10;}
	.st3{display:inline;}
	.st4{fill:none;stroke:#000000;stroke-width:15;stroke-linecap:round;stroke-linejoin:round;stroke-miterlimit:10;}
	.st5{display:inline;fill:none;stroke:#1A1D3F;stroke-width:15;stroke-linecap:round;stroke-linejoin:round;stroke-miterlimit:10;}
	.st6{fill:#DDEDE7;}
	.st7{fill:#1A1D3F;}
	.st8{fill:#E9B44D;}
	.st9{fill:#ED644E;}
	.st10{fill:#494EDF;}
	.st11{fill:#3DC5A1;}
	.st12{fill:#F6CEC1;}
	.st13{fill:none;}
	.st14{fill:none;stroke:#1A1D3F;stroke-width:15;stroke-linecap:round;stroke-linejoin:round;stroke-miterlimit:10;}
	.st15{display:inline;fill:#E9B44D;}
	.st16{fill:#222222;}
	.st17{display:inline;fill:#222222;}
</style><g class="st0" id="guide"/><g class="st0" id="sketch"/><g class="st0" id="stroke"><path class="st2" d="M677.2,613.1c13.9-1,24.6-12.5,24.7-26.4c0.9-110.7-0.8-225.8,0.2-336.5c0.3-34.6-3.4-82.6-26.8-108.1   c-20.5-22.3-52.7-32.2-82.7-35.8c-53-6.3-101.1-7.8-154.4-4.4c-29,1.9-58.2,5.2-85.5,15.1S299.9,143.7,284,168   c-19.4,29.9-22.4,67.2-24.1,102.8c-5,103.3-4.2,224.8,2.5,328.1c0.9,14.1,12.6,25,26.7,25C396.2,623.8,542.4,623.1,677.2,613.1z"/><path class="st2" d="M336.1,194c8.9-6.8,21.4-6.1,32.6-6.1c78,0,156,0.1,233.9,0.1c17.1,0,30.6,1.4,40.2,15.5   c6.6,9.6,6.1,22.3,5.4,33.9c-1.7,26.4-0.1,52.9-1.8,79.3c-0.9,14.3,0.5,38.2-9.2,48.7c-9.9,10.7-22.1,8.7-45.7,9.6   c-64.2,2.4-131.3,0.8-208.6,2c-12.2,0.2-44.1-0.9-52.5-9.6c-11.3-11.8-9.2-36.8-9.2-49.1C321.2,296.8,319,207.2,336.1,194z"/><path class="st2" d="M454.7,315.2c0.3,9.5,6.8,18.3,15.5,22.1c8.7,3.8,19.2,2.8,27.4-2s14.2-13,17.1-22"/><path class="st2" d="M386.1,243.8c12.8,3.7,25.5,7.4,38.3,11.1c-10.7,8.8-21.4,17.7-32.1,26.5"/><path class="st2" d="M580.6,241.5c-13.7,4.4-27.3,8.9-41,13.3c10.4,8.2,20.8,16.4,31.3,24.7"/><path class="st2" d="M317.5,470.4c1.6-7,7-13.7,13.9-14c6.1-0.3,11.6,4.5,14.3,10.3s3.2,12.3,3.6,18.7c1.4,21.6,2.9,43.3,4.3,64.9   c0.5,7.2,0.9,14.5-1.4,21.3c-2.3,6.7-8.3,12.7-15.1,12.5c-5.5-0.2-10.4-4.3-13.2-9.3c-2.7-5.1-3.6-10.9-4.2-16.7   C317.3,536.1,315.9,477.4,317.5,470.4z"/><path class="st2" d="M381.5,484.3c-0.1-4.9-0.3-9.8,0.7-14.5c1-4.7,3.1-9.3,6.7-11.6c6.2-4.1,14.4,0.1,18.5,7.1   c4.1,7,5.1,15.9,5.8,24.4c1.6,21.5,1.7,43.2,0.2,64.8c-0.3,5.1-0.8,10.3-2.6,15c-1.8,4.6-5.1,8.7-9.3,9.6   c-5.4,1.1-10.8-3.4-13.5-9.3c-5.4-11.9-4.4-32.4-5.6-45.5C381.1,509.7,382,498.9,381.5,484.3z"/><path class="st2" d="M444.5,483.2c-0.4-6.3-0.8-12.8,1.3-18.7c2.1-5.9,7.3-11.1,13.4-10.8c4.9,0.2,9.1,4,11.4,8.5s3,9.7,3.6,14.7   c3.2,26.9,5.6,54.1,3.3,81.1c-0.5,6.1-1.3,11.6-4.8,16.6c-3.5,5-11.4,5.8-17.4,1.2c-4-3.1-5.9-11.8-6.4-17   C446.2,531.3,446.2,510.9,444.5,483.2z"/><path class="st2" d="M537.3,456.9c-4.5,3.9-7.3,9.9-6.8,15.8c0.8,8.6,8.6,15.4,17.1,16.8c6.9,1.2,14.5-0.9,19.4-5.9   c4.9-5,6.8-13,4.1-19.5C565.3,450.4,548.2,447.5,537.3,456.9z"/><path class="st2" d="M606,460.6c-2.4,6.7-0.6,14.6,4.2,19.9c4.8,5.3,12.2,7.9,19.3,7.2c5.5-0.6,10.8-3.1,14.1-7.5   c4.7-6.4,3.9-15.9-1.2-21.9C633.1,447.4,611.6,445.1,606,460.6z"/><path class="st2" d="M540.9,537.2c-3.7,3.4-6.5,9.2-6.3,14.2c0.2,5.3,2.7,10,6.6,13.7c3.1,2.9,7.7,5.4,11.8,6.4   c7.1,1.7,15.1-1.9,18.9-8.1c3.9-6.2,3.8-14.6,0.1-21c-3-5.3-7.5-9.2-13.8-10.2C549.9,530.9,545.3,533.2,540.9,537.2z"/><path class="st2" d="M611.8,534.5c-4.4,5.8-5,14.1-2,20.6c2.5,5.4,7.5,9.7,13.2,11.5c7.2,2.2,15.7,0.3,21.1-5.1   c5.4-5.3,7.5-13.8,5-21C644.2,526,621.2,522.2,611.8,534.5z"/><path class="st2" d="M421.9,857.2c2.3-21.4-13.6-43.5-39.5-55s-60.5-11.6-85.8-0.5c-25.4,11.2-40.4,33.1-37.1,54.5   C312.4,857.2,369,856.2,421.9,857.2z"/><path class="st2" d="M710.2,860c2.3-21.4-13.6-43.5-39.5-55c-25.9-11.4-60.5-11.6-85.8-0.5c-25.4,11.2-40.4,33.1-37.1,54.5   C600.6,860,657.2,859,710.2,860z"/><path class="st2" d="M281.9,810.2c-4.6-62.5-1.3-128.5,25.9-186.3"/><path class="st2" d="M399.2,812.1c-1.2-80.8,0-119.8,27.4-189.1"/><path class="st2" d="M528.7,620.7c37.6,63.8,42.6,121,40,193.3"/><path class="st2" d="M652.8,614.8c35,70.2,38,114.4,34.8,200.2"/><path class="st2" d="M256.9,377.2c-27.1-0.8-53.5,5.9-77.3,18.1c-21.9,11.2-41.6,27-57.3,45.8c-4.3,5.2-8.2,10.5-11.6,16   c-14.9,24-21.6,51.1-23.4,80.8c-1,17.4-0.4,35.6,1.3,54.6"/><path class="st2" d="M257.3,471.5c-14.1,0.2-25.9,3.6-35.9,9.3c-10.9,6.2-19.6,15.3-26.5,26.1c-0.6,0.9-1.2,1.9-1.7,2.8   c-6.5,11.3-9.9,24.4-11.6,38.9c-1.4,11.5-1.7,23.9-1.7,36.9"/><path class="st2" d="M200.2,677.7c7.5-14.9,12-31.6,10.2-48.1c-1.8-16.5-10.6-32.7-25-41.1c-16-9.3-35.7-11-54.1-9.3   c-17.1,1.5-35.4,6.5-48.4,17.7c-12,10.3-17.1,26.8-16.8,42.6c0.3,15.8,3.6,36,11,45.8c6.7,8.8,22.8,10,30,1.7   c6.5-7.5,4.9-18.7,3.6-28.5s-3.8-20.7,1.7-29.1c7-10.8,24.1-14.2,37-13.4c11.1,0.7,23.1,5.7,27.3,16c5.9,14.9-11.1,31.3-5.8,46.5   c2.1,6.1,8.1,10.6,14.6,11S197.3,683.5,200.2,677.7z"/><path class="st2" d="M181.5,548.6c-31.4-3.6-62.8-7.2-94.3-10.7"/><path class="st2" d="M221.3,480.8c-13.9-28.5-27.8-57-41.8-85.5"/><path class="st2" d="M193.1,509.7c-27.5-17.5-54.9-35.1-82.4-52.6"/><path class="st2" d="M702.1,469.4c27,0.9,53.6-5.7,77.4-17.8c22-11.1,41.7-26.8,57.5-45.5c4.4-5.2,8.2-10.5,11.7-16   c15-23.9,21.8-51,23.7-80.7c1.1-17.3,0.5-35.6-1.1-54.6"/><path class="st2" d="M702.1,375.1c14.1-0.1,25.9-3.5,36-9.2c10.9-6.2,19.6-15.2,26.6-26c0.6-0.9,1.2-1.9,1.7-2.8   c6.6-11.3,10-24.4,11.7-38.9c1.4-11.5,1.8-23.9,1.9-36.9"/><path class="st2" d="M760,169.1c-7.5,14.8-12.1,31.6-10.4,48.1s10.5,32.8,24.8,41.2c15.9,9.4,35.7,11.1,54.1,9.6   c17.1-1.4,35.4-6.4,48.5-17.5c12-10.2,17.2-26.8,17-42.5c-0.2-15.8-3.4-36-10.8-45.8c-6.6-8.8-22.7-10.1-30-1.8   c-6.6,7.5-5,18.7-3.7,28.5s3.7,20.7-1.8,29.1c-7.1,10.8-24.2,14.1-37,13.3c-11.1-0.7-23.1-5.8-27.2-16.1c-5.9-15,11.2-31.3,6-46.5   c-2.1-6.1-8.1-10.7-14.5-11C768.4,157.2,762.9,163.4,760,169.1z"/><path class="st2" d="M778.1,298.3c31.4,3.7,62.8,7.4,94.2,11.1"/><path class="st2" d="M738,365.9c13.8,28.6,27.6,57.1,41.4,85.7"/><path class="st2" d="M766.4,337.1c27.4,17.7,54.8,35.3,82.2,53"/><path class="st2" d="M294.8,657.8c38.9,1,77.8,5,116.1,11.9"/><path class="st2" d="M280.6,745.6c39.5-4.3,79.4-5.6,119.1-3.8"/><path class="st2" d="M671.9,659c-39.8,4-79.7,8-119.5,12"/><path class="st2" d="M567.7,744.2c40.1-2.2,80.5-1.3,120.5,2.7"/></g><g id="outline"><path d="M642.7,370.6c9.8-10.7,10.4-29.6,10.9-44.8c0.1-3.1,0.2-6,0.3-8.5c0.9-13.4,0.9-27,0.9-40.1c0-12.9,0.1-26.2,0.9-39.2   c0.7-11.2,1.7-26.5-6.7-38.6c-11.9-17.3-28.7-18.8-46.4-18.8l-233.9-0.1c-0.9,0-1.9,0-2.8,0c-11.3-0.1-24.1-0.1-34.3,7.7h0   c-13.1,10.1-18.3,45.6-17.8,122.7c0,3,0,5.6,0,7.6c0,1.4,0,3.1-0.1,4.8c-0.3,14.7-0.7,36.9,11.4,49.5   c10.2,10.7,41.2,11.9,54.7,11.9c1.3,0,2.4,0,3.3,0c31.8-0.5,61.8-0.5,90.7-0.5c41.2,0,80.1,0,118-1.5c4-0.2,7.7-0.2,11.2-0.3   C620,382.1,632.4,381.8,642.7,370.6z M591.2,367.7c-37.6,1.4-76.4,1.4-117.5,1.5c-29,0-59.1,0-91,0.5c-21.7,0.3-42.8-2.9-46.9-7.3   c-7.8-8.2-7.4-27.4-7.2-38.9c0-1.9,0.1-3.6,0.1-5.1c0-2,0-4.6,0-7.7c-0.1-15.3-0.2-40.9,1.6-64.5c2.9-38.6,9.2-45.3,10.4-46.2   c0,0,0,0,0,0c5.4-4.2,13.7-4.6,22-4.6c1,0,2,0,3,0c1,0,2,0,2.9,0l233.9,0.1c17.4,0,26.9,1.8,34,12.3c5,7.3,4.8,17.6,4.1,29.2   c-0.9,13.4-0.9,27-0.9,40.1c0,12.9-0.1,26.2-0.9,39.2c-0.2,2.8-0.3,5.8-0.4,9c-0.4,12.1-0.9,28.6-6.9,35.1   c-5.7,6.2-12.6,6.6-29,6.9C599.2,367.4,595.4,367.5,591.2,367.7z M521.7,315.5c-3.5,11.2-11,20.8-20.5,26.3   c-6.1,3.5-13,5.3-19.8,5.3c-5,0-9.9-1-14.4-2.9c-11.6-5.1-19.6-16.7-20-28.8c-0.1-4.1,3.2-7.6,7.3-7.7c4.1-0.1,7.6,3.2,7.7,7.3   c0.2,6.4,4.7,12.7,11,15.5c6.3,2.7,14.2,2.1,20.6-1.6c6.3-3.6,11.2-10.1,13.7-17.8c1.2-4,5.5-6.1,9.4-4.9   C520.8,307.4,523,311.6,521.7,315.5z M431.7,253.4c0.6,2.7-0.4,5.5-2.6,7.3L397,287.2c-1.4,1.2-3.1,1.7-4.8,1.7   c-2.2,0-4.3-0.9-5.8-2.7c-2.6-3.2-2.2-7.9,1-10.6l21.2-17.5L384,251c-4-1.2-6.3-5.3-5.1-9.3s5.3-6.3,9.3-5.1l38.3,11.1   C429.1,248.5,431.2,250.7,431.7,253.4z M587.7,239.2c1.3,3.9-0.9,8.2-4.8,9.5l-27.6,9l20.2,16c3.3,2.6,3.8,7.3,1.2,10.5   c-1.5,1.9-3.7,2.9-5.9,2.9c-1.6,0-3.3-0.5-4.6-1.6l-31.3-24.7c-2.2-1.7-3.2-4.5-2.7-7.2s2.4-5,5.1-5.8l41-13.3   C582.2,233.1,586.4,235.3,587.7,239.2z M356.7,484.9c-0.4-6.7-0.9-14.3-4.3-21.4c-4.3-9.2-12.7-15-21.4-14.6   c-8,0.3-17.9,6.7-20.9,19.8c-2,8.9,0,70.4,2,90.1c0.7,6.5,1.7,13.3,5,19.5c4.3,8,11.8,13.1,19.5,13.3c0.2,0,0.4,0,0.5,0   c9.3,0,18.3-7.1,21.9-17.5c2.9-8.3,2.3-17.1,1.8-24.2L356.7,484.9z M345,569.2c-1.5,4.3-4.9,7.6-7.8,7.4c-2.3-0.1-5.1-2.3-6.8-5.4   c-2-3.6-2.8-8.2-3.3-13.9c-2.3-22.5-3.5-78.7-2.3-85.3c1-4.3,4.1-8,6.9-8.1c2.4-0.1,5.5,2.5,7.2,6c2.1,4.5,2.5,10.4,2.9,16   l4.3,64.9C346.4,557.2,346.9,563.8,345,569.2z M413.8,461.5c-3.6-6.1-9.4-10.5-15.5-11.9c-4.8-1.1-9.7-0.3-13.7,2.4   c-4.9,3.2-8.4,9.1-9.8,16.3c-1.1,5.6-1,11.2-0.8,16.2c0.2,5.3,0.1,10.1,0.1,14.7c0,8.3-0.1,16.1,0.8,25.6c0.3,3.3,0.5,7.3,0.6,11.4   c0.5,12.4,1.1,26.5,5.6,36.5c3.9,8.5,11.2,13.8,18.7,13.8c1.1,0,2.1-0.1,3.2-0.3c6.3-1.3,11.8-6.7,14.7-14.3   c2.1-5.6,2.7-11.5,3-17.1c1.5-21.8,1.4-44-0.2-65.8C419.9,480.2,418.8,470,413.8,461.5z M405.9,554c-0.3,4.7-0.7,9.2-2.1,12.8   c-1.2,3.1-2.9,4.7-3.8,4.9c-0.9,0.2-3.5-1.4-5.1-5c-3.3-7.4-3.8-19.9-4.3-30.9c-0.2-4.4-0.3-8.5-0.7-12.2   c-0.8-8.8-0.8-16.3-0.7-24.2c0-4.8,0-9.7-0.1-15.2v0c-0.1-4.4-0.3-8.9,0.5-12.8c0.6-3.2,2-5.9,3.5-6.8c0.3-0.2,0.6-0.4,1.2-0.4   c0.2,0,0.5,0,0.8,0.1c2.1,0.5,4.4,2.4,5.9,4.9c3.3,5.7,4.2,13.5,4.7,21.1C407.2,511.4,407.3,532.8,405.9,554z M477.2,458.8   c-3.8-7.4-10.6-12.2-17.7-12.5c-8.8-0.4-17.3,6.1-20.8,15.8c-2.6,7.4-2.1,15.3-1.7,21.6c0,0,0,0,0,0c0.7,10.5,1.1,20.1,1.5,29.3   c0.7,15.1,1.3,29.4,3,46.6c0.4,3.8,2.1,16.6,9.3,22.2c3.9,3,8.6,4.6,13.3,4.6c1,0,2-0.1,3-0.2c5-0.7,9.2-3.3,11.9-7.2   c4.6-6.6,5.6-13.6,6.1-20.2c2.3-28-0.2-56.3-3.3-82.6C480.9,470.4,480,464.4,477.2,458.8z M470,557.5c-0.5,6-1.2,9.6-3.4,12.9   c-0.5,0.7-1.4,0.9-1.9,1c-1.6,0.2-3.3-0.3-4.8-1.4c-1.1-1-3-5.9-3.6-11.8c-1.6-16.8-2.2-30.8-2.9-45.8c-0.4-9.3-0.8-18.9-1.5-29.6   c-0.4-5.5-0.7-11.1,0.9-15.7c1.1-3.2,3.9-5.9,5.9-5.8c1.7,0.1,3.8,1.9,5.1,4.4c1.7,3.3,2.3,7.6,2.9,12.2   C469.7,503.4,472.2,530.8,470,557.5z M546.4,496.9c1.7,0.3,3.4,0.4,5.1,0.4c7.9,0,15.6-3,20.9-8.5c7.2-7.4,9.5-18.5,5.6-27.7   c-3.6-8.4-10.7-14.5-19.5-16.5c-9.1-2.1-18.9,0.3-26.1,6.5c-6.5,5.6-10.1,14.1-9.3,22.2C524.2,484.9,534,494.8,546.4,496.9z    M542.2,462.6C542.2,462.6,542.2,462.6,542.2,462.6c2.8-2.4,6.2-3.7,9.7-3.7c1.1,0,2.1,0.1,3.2,0.4c4.2,1,7.4,3.7,9.1,7.8   c1.5,3.5,0.4,8.3-2.5,11.3c-3,3.1-8.1,4.6-12.8,3.7c-5.6-1-10.4-5.4-10.9-10.2C537.7,468.7,539.4,465.1,542.2,462.6z M627.2,495.3   c1,0,2-0.1,3.1-0.2c8-0.8,15.1-4.7,19.4-10.6c6.6-9,5.9-22.4-1.5-31.2c-7.1-8.4-19.6-12.8-30.5-10.9c-8.8,1.6-15.6,7.3-18.6,15.5   c-3.3,9.2-1.1,20,5.6,27.5C610.1,491.7,618.6,495.3,627.2,495.3z M613,463.1c1.2-3.3,3.5-5.2,7.2-5.9c5.7-1,12.7,1.5,16.4,5.8   c3,3.5,3.4,9.2,0.9,12.6c-1.8,2.4-5.1,4.1-8.8,4.5c-4.9,0.5-10-1.4-13-4.7C612.7,472.2,611.6,467.1,613,463.1z M559.5,524.8   c-12.1-1.9-18.8,2.4-23.7,6.9c-5.5,5-9,13.1-8.7,20c0.3,7.1,3.4,13.6,9,18.8c4.1,3.8,9.9,6.9,15.2,8.2c1.7,0.4,3.5,0.6,5.3,0.6   c8.5,0,17.1-4.6,21.8-12c5.3-8.4,5.4-19.7,0.3-28.6C574.2,530.8,567.6,526,559.5,524.8z M565.6,559.4c-2.2,3.6-7,5.7-10.8,4.8   c-2.8-0.7-6.2-2.6-8.5-4.6c-2.7-2.5-4.1-5.3-4.2-8.5c-0.1-2.6,1.6-6.3,3.8-8.3c0,0,0,0,0,0c2.4-2.2,4.5-3.4,8-3.4   c1,0,2,0.1,3.3,0.3c3.5,0.5,6.2,2.7,8.4,6.5C567.9,550.2,567.9,555.7,565.6,559.4z M633.4,520.1c-10.9-1.8-21.5,2-27.5,9.9   c-6.1,7.9-7.2,19.1-2.8,28.4c3.4,7.3,10.1,13.1,17.8,15.5c2.7,0.8,5.5,1.2,8.4,1.2c7.5,0,14.8-2.9,20.2-8.1   c7.5-7.4,10.2-18.9,6.9-28.7C653,528.8,644.3,521.9,633.4,520.1z M638.8,556.3c-3.4,3.3-9,4.7-13.6,3.2c-3.7-1.1-7-4-8.6-7.5   c-2-4.2-1.5-9.5,1.1-12.9c2.5-3.3,6.6-4.5,10.3-4.5c1,0,2,0.1,2.9,0.2c4.3,0.7,9.4,3.2,11.1,8.2   C643.5,547.5,642.2,552.9,638.8,556.3z M868,147.3c-8.2-0.3-15.7,2.6-20.5,8.1c-8.7,9.9-7,23.3-5.6,34l0.1,0.4   c0.2,1.2,0.3,2.4,0.5,3.6c1.1,7.9,2.2,15.4-1.1,20.4c-3.6,5.5-14.6,11-30.3,9.9c-7.7-0.5-17.7-3.8-20.7-11.4   c-1.9-4.9,0.3-11,2.9-18.1c3.1-8.4,6.6-18,3.2-28c-3-9-11.8-15.6-21.2-16.1c-10-0.6-17.9,7.7-22,15.6c-9,17.8-12.9,35.8-11.2,52.3   c2.1,20.1,12.8,37.7,28.5,46.9c0.6,0.4,1.2,0.7,1.8,1c-0.1,10-0.5,21.1-1.8,31.4c-1.8,15.1-5.3,26.6-10.8,36   c-0.5,0.8-1,1.6-1.5,2.5c-6.7,10.4-14.8,18.3-24.1,23.6c-7.4,4.2-15.8,6.8-25,7.8c-0.1-39.1-0.1-78.5,0.2-116.9   c0.5-53.9-9.2-92-28.8-113.3c-23.7-25.8-60.5-35-87.3-38.2c-54.3-6.5-102.3-7.9-155.7-4.4c-26.8,1.7-58.2,4.9-87.6,15.5   c-22.2,8-52.8,23.9-72.4,54.1c-20.1,31-23.5,68.1-25.3,106.6c-1.5,31.7-2.5,65.1-2.9,99.2c-24.7,0.5-49.9,7-73.2,18.8c0,0,0,0,0,0   c0,0,0,0,0,0c0,0-0.1,0-0.1,0c-22.6,11.5-43.2,28-59.6,47.6c-4.5,5.3-8.6,11-12.2,16.8c0,0,0,0,0,0c0,0,0,0,0,0c0,0,0,0,0,0.1   c-14.5,23.3-22.5,50.9-24.5,84.3c-0.9,15.3-0.6,32.2,0.9,51.4c-0.9,0.7-1.9,1.5-2.8,2.2c-12.7,10.9-19.8,28.6-19.4,48.4   c0.3,16.7,3.8,38.6,12.5,50.2c4.6,6.1,12.6,10,21.2,10.2c0.4,0,0.7,0,1.1,0c7.8,0,14.9-3,19.4-8.2c8.7-10,6.9-23.3,5.4-34.1   l-0.1-0.4c-0.2-1.2-0.3-2.4-0.5-3.6c-1.2-7.9-2.2-15.4,1-20.4c3.6-5.5,14.6-11,30.2-10.1c7.7,0.5,17.7,3.7,20.8,11.3   c2,4.9-0.3,11-2.8,18.1c-3.1,8.5-6.5,18-3.1,28c3.1,8.9,11.8,15.5,21.3,16c10.1,0.5,17.9-7.8,21.9-15.7c9-17.8,12.8-35.9,11-52.3   c-2.2-20.1-12.9-37.6-28.6-46.8c-0.6-0.4-1.2-0.7-1.8-1c0.1-10,0.4-21.1,1.6-31.4c1.8-15.1,5.2-26.6,10.6-36.1   c0.5-0.8,1-1.6,1.5-2.5c6.7-10.4,14.8-18.4,24-23.7c7.4-4.2,15.7-6.9,24.9-7.9c0.9,41.5,2.5,82.1,4.9,120c1.1,17.9,16.1,32,34.2,32   c0,0,0,0,0,0c2.4,0,4.9,0,7.3,0c-19.9,47.7-27,103.9-22.2,175.3c-16.3,13.5-24.9,32.2-22.1,50.6c0.5,3.6,3.6,6.3,7.3,6.4   c26.6,0.5,54.4,0.5,81.4,0.5c26.9,0,54.7,0,81.1,0.5c0,0,0.1,0,0.1,0c3.8,0,7-2.9,7.5-6.7c1.9-17.9-6.8-36-22.7-49.5   c-1.1-72.9-0.1-112.7,25.1-178.1c30.8-0.5,61.8-1.1,92.6-2.1c8.7,15.2,15.4,30,20.7,44.8c0.1,0.3,0.2,0.6,0.3,0.9   c14.9,42.2,17.5,84.6,15.8,136.4c-15.6,13.4-23.8,31.7-21,49.7c0.5,3.6,3.6,6.3,7.3,6.4c26.6,0.5,54.4,0.5,81.4,0.5   c26.9,0,54.7,0,81.1,0.5c0,0,0.1,0,0.1,0c3.8,0,7-2.9,7.5-6.7c1.9-17.7-6.7-35.7-22.4-49.2c2.3-62.7,1.1-105.1-16-154.1   c-0.1-0.6-0.3-1.2-0.6-1.8c-3.9-10.9-8.6-22.2-14.2-34.2c4.5-0.3,8.9-0.6,13.4-0.9h0c17.6-1.3,31.5-16.2,31.7-33.8   c0.3-36.1,0.3-73.1,0.3-109.8c24.6-0.5,49.7-6.8,73-18.6c0,0,0,0,0,0c0,0,0,0,0,0c0,0,0.1,0,0.1-0.1c22.6-11.4,43.3-27.8,59.8-47.4   c4.5-5.3,8.6-11,12.2-16.8c0,0,0,0,0,0c0,0,0,0,0,0c0,0,0,0,0-0.1c14.6-23.3,22.7-50.8,24.9-84.2c1-15.3,0.7-32.2-0.7-51.4   c0.9-0.7,1.9-1.4,2.8-2.2c12.7-10.9,19.9-28.5,19.6-48.3c-0.2-16.7-3.6-38.6-12.3-50.2C884.5,151.5,876.6,147.6,868,147.3z    M113.2,467.6l70,44.7c-3.8,8.1-6.4,17.2-8.2,28c-26.6-3-53.2-6.1-79.8-9.1C97.5,506.6,103.4,485.7,113.2,467.6z M94.4,546.3   c26.3,3,52.6,6,78.9,9c-0.5,6.6-0.8,13.2-0.9,19.6c-12.1-3.5-26.1-4.6-41.8-3.2c-10.2,0.9-23.2,3.2-35.5,8.8   C94.3,568,94.1,556.7,94.4,546.3z M202.9,630.4c1.5,13.6-1.8,28.8-9.4,44c-2.2,4.3-5.5,7.6-7.7,7.5c-3.4-0.2-6.8-2.7-7.9-5.9   c-1.7-5,0.6-11.3,3-18c3.2-8.7,6.8-18.6,2.7-28.8c-5.6-14.1-21.1-19.9-33.8-20.7c-14.5-0.9-34.7,3-43.7,16.8   c-6.4,9.7-4.7,20.9-3.3,30.8c0.2,1.1,0.3,2.3,0.5,3.4l0.1,0.4c1.1,8.5,2.3,17.4-1.9,22.2c-1.8,2-5,3.2-8.7,3   c-4.1-0.1-7.8-1.8-9.7-4.3c-5.3-7-9.1-23.7-9.5-41.4c-0.3-15.1,5-28.9,14.2-36.8c1.6-1.4,3.2-2.6,4.9-3.7c0,0,0,0,0,0   c12.3-8.2,27.8-11.2,39.2-12.2c4-0.4,7.9-0.5,11.6-0.5c12.9,0,24,2.1,33.3,6.4c0,0,0.1,0,0.1,0.1c1.6,0.8,3.2,1.6,4.7,2.4   C193.1,601.6,201.2,615.2,202.9,630.4z M190.8,499.4l-69.7-44.5c2.2-3.1,4.5-6.1,6.9-9c13.5-16.1,30-29.9,48.2-40.3   c9.4,19.2,18.8,38.5,28.2,57.7l7.2,14.8C203.9,483.6,196.9,490.7,190.8,499.4z M224.7,470.7l-6.8-14c-9.4-19.3-18.9-38.6-28.3-57.9   c19.3-8.8,39.7-13.6,59.7-14.1c-0.2,26.5-0.1,53.2,0.3,79.7C240.8,465.2,232.4,467.3,224.7,470.7z M300.2,665.5   c33.9,1.2,67.9,4.6,101.3,10.2c-4.9,19.8-7.5,38.5-8.9,58.3c-34.7-1.2-69.6-0.1-104.1,3.3C290.1,711,294,687.3,300.2,665.5z    M287.9,752.4c34.4-3.4,69.4-4.6,104-3.4c-0.6,15.1-0.6,31.2-0.3,49.3c-2-1-4-2-6-2.9c-27.7-12.3-64.7-12.5-91.9-0.5   c-1.7,0.7-3.4,1.5-5,2.4C287.8,781.5,287.5,766.6,287.9,752.4z M414.5,849.6c-19.7-0.3-40-0.3-60-0.3c-4.6,0-9.2,0-13.8,0   c-24.5,0-49.8,0-74.1-0.3c0.6-11.9,7.7-23.6,19.4-32.4c0.2-0.2,0.5-0.3,0.7-0.5c3.9-2.8,8.2-5.3,13-7.4   c23.6-10.4,55.7-10.2,79.8,0.5c5.5,2.4,10.5,5.4,14.9,8.7c0.3,0.2,0.5,0.4,0.8,0.6C406.2,827.1,413.3,838.3,414.5,849.6z    M405.5,661.1c-33.1-5.6-66.9-9.1-100.5-10.5c2.3-6.6,4.9-13,7.7-19.3c33.9-0.1,68.4-0.3,103-0.7   C411.7,641.4,408.3,651.5,405.5,661.1z M557.5,663c-4.4-11.6-9.8-23.3-16.2-35.2c36-1.3,71.8-2.9,107-5.2   c5.1,10.5,9.4,20.4,13.1,29.9L557.5,663z M683.4,821.2c11.1,8.7,18.1,19.8,19.3,31.1c-19.7-0.3-40-0.3-60-0.3c-4.6,0-9.2,0-13.8,0   c-24.5,0-49.8,0-74.1-0.3c0.6-11.5,7.2-22.8,18.2-31.4c0.2-0.1,0.4-0.3,0.6-0.5c4.2-3.2,9-6.1,14.3-8.4   c23.6-10.4,55.7-10.2,79.8,0.5c5.5,2.4,10.5,5.4,15,8.8C682.8,820.8,683.1,821,683.4,821.2z M680.6,801.5c-2.2-1.2-4.5-2.3-6.9-3.4   c-27.7-12.3-64.7-12.5-91.9-0.5c-1.8,0.8-3.5,1.6-5.2,2.5c0.4-17.1,0.2-33.3-0.9-48.8c35-1.6,70.3-0.7,105.2,2.5   C681.3,768.4,681.1,784.1,680.6,801.5z M666.7,667.1c8,24.1,11.9,46.6,13.5,71.6c-35.1-3.1-70.6-3.9-105.7-2.3   c-2.1-20.2-5.9-39.6-11.9-58.8L666.7,667.1z M694.4,586.6c-0.1,9.9-7.9,18.3-17.8,19c-48.4,3.6-98.1,6-148.1,7.6   c-0.1,0-0.1,0-0.2,0c-80.2,2.6-161.3,3.1-239.3,3.2c0,0,0,0,0,0c-10.1,0-18.5-7.9-19.2-18c-6.5-101.6-7.4-223.9-2.4-327.2   c1.8-36.4,4.8-71.3,22.9-99.1c17.3-26.7,44.9-40.9,65-48.1c27.7-10,57.7-13,83.4-14.7c18.5-1.2,36.4-1.8,54.1-1.8   c32.5,0,64.4,2,98.9,6.2c24.3,2.9,57.5,11.1,78.1,33.5c16.9,18.4,25.3,53.1,24.8,103c-0.5,55.4-0.3,112.8-0.1,168.4   c0.1,16.4,0.1,33,0.2,49.7c-0.1,0.3-0.1,0.7-0.1,1c0,0.5,0,1.1,0.1,1.6C694.8,509.5,694.8,548.6,694.4,586.6z M709.7,461.9   c0-14.6-0.1-29.1-0.1-43.5c0-12-0.1-24.1-0.1-36.2c9-0.8,17.4-2.9,25.2-6.2l7.4,15.3c9.1,18.9,18.3,37.9,27.5,56.8   C750.1,456.8,729.7,461.5,709.7,461.9z M831.2,401.2c-13.6,16.1-30.2,29.8-48.4,40.1c-9.1-18.8-18.2-37.7-27.3-56.6l-7.8-16.1   c7.8-5.5,14.8-12.6,20.9-21.2l69.5,44.8C835.9,395.3,833.6,398.3,831.2,401.2z M846.1,379.5l-69.9-45c3.8-8.1,6.5-17.2,8.3-28   c26.6,3.1,53.2,6.3,79.8,9.4C862,340.6,856,361.5,846.1,379.5z M865.2,301c-26.3-3.1-52.6-6.2-78.9-9.3c0.6-6.6,0.8-13.2,1-19.6   c8.8,2.6,18.7,3.9,29.5,3.9c4,0,8.1-0.2,12.3-0.5c10.2-0.9,23.2-3.1,35.5-8.6C865.4,279.2,865.6,290.5,865.2,301z M872.1,244.8   c-1.6,1.3-3.2,2.6-5,3.7c0,0,0,0,0,0c-12.3,8.1-27.8,11.1-39.3,12c-17.8,1.5-32.7-0.5-44.6-5.9c-0.1-0.1-0.3-0.1-0.4-0.2   c-1.6-0.8-3.2-1.6-4.6-2.4c-11.4-6.7-19.5-20.4-21.2-35.6c-1.4-13.6,1.9-28.7,9.6-43.9c2.2-4.3,5.6-7.6,7.8-7.4   c3.4,0.2,6.8,2.8,7.9,6c1.7,5-0.6,11.3-3.1,18c-3.2,8.7-6.8,18.6-2.8,28.8c5.6,14.1,21,20,33.7,20.8c14.5,1,34.7-2.8,43.8-16.6   c6.4-9.7,4.8-20.9,3.4-30.8c-0.2-1.1-0.3-2.3-0.5-3.4l-0.1-0.4c-1.1-8.5-2.3-17.4,2-22.2c1.8-2,5-3.2,8.7-3   c4.1,0.2,7.8,1.8,9.7,4.4c5.3,7.1,9.1,23.7,9.3,41.4C886.7,223.2,881.3,236.9,872.1,244.8z"/></g><g class="st0" id="flat"><g class="st3"><g><g><g><g><g><g><g><g><path class="st6" d="M426.6,623l-62.7-9.6l-56,10.4c-27.3,57.8-30.5,123.9-25.9,186.3l117.3,1.9            C398,731.4,399.2,692.3,426.6,623z"/></g></g></g></g></g></g></g></g><g><g><g><g><g><g><g><g><path class="st6" d="M652.9,614.8l-60.2-7.1l-63.9,13c37.6,63.8,42.5,121,40,193.3l118.9,1            C690.9,729.3,687.8,685,652.9,614.8z"/></g></g></g></g></g></g></g></g><g><g><g><g><g><g><g><g><path class="st6" d="M256.9,377.2c-27.1-0.8-53.5,5.9-77.3,18.1c-21.9,11.2-41.6,27-57.3,45.8c-4.3,5.2-8.2,10.5-11.6,16            c-14.9,24-21.6,51.1-23.4,80.8c-1,17.3-0.4,35.6,1.3,54.6l91.3-7c0-13,0.4-25.4,1.7-36.9c1.7-14.5,5-27.6,11.6-38.9            c0.5-1,1.1-1.9,1.7-2.8c7-10.8,15.7-19.9,26.5-26.1c10-5.8,21.9-9.1,35.9-9.3l9.8-46.9L256.9,377.2z"/></g></g></g></g></g></g></g></g><g><g><g><g><g><g><g><g><path class="st6" d="M871.3,254.8l-91.3,6.6c-0.1,13-0.5,25.4-1.9,36.9c-1.8,14.5-5.2,27.6-11.7,38.9            c-0.5,0.9-1.1,1.9-1.7,2.8c-7,10.8-15.7,19.8-26.6,26c-10,5.7-21.9,9-36,9.2l-10,45.9l10,48.4c27,0.9,53.6-5.7,77.4-17.8            c22-11.1,41.7-26.8,57.5-45.5c4.4-5.2,8.2-10.5,11.7-16c15-23.9,21.8-51,23.7-80.7C873.4,292,872.9,273.8,871.3,254.8z"/></g></g></g></g></g></g></g></g><g><g><g><g><g><g><g><g><path class="st9" d="M677.2,613.1c13.9-1,24.6-12.5,24.7-26.4c0.9-110.7-0.8-225.8,0.2-336.5            c0.3-34.6-3.4-82.6-26.8-108.1c-20.5-22.3-52.7-32.2-82.7-35.8c-53-6.3-101.1-7.8-154.4-4.4c-29,1.9-58.2,5.2-85.5,15.1            S299.9,143.7,284,168c-19.4,29.9-22.4,67.2-24.1,102.8c-5,103.3-4.2,224.8,2.5,328.1c0.9,14.1,12.6,25,26.7,25            C396.2,623.8,542.4,623.1,677.2,613.1z"/></g></g></g></g></g></g></g></g><g><g><g><g><g><g><g><g><path class="st6" d="M336.1,194c8.9-6.8,21.4-6.1,32.6-6.1c78,0,156,0.1,233.9,0.1c17.1,0,30.6,1.4,40.2,15.5            c6.6,9.6,6.1,22.3,5.4,33.9c-1.7,26.4-0.1,52.9-1.8,79.3c-0.9,14.3,0.5,38.2-9.2,48.7c-9.9,10.7-22.1,8.7-45.7,9.6            c-64.2,2.4-131.3,0.8-208.6,2c-12.2,0.2-44.1-0.9-52.5-9.6c-11.3-11.8-9.2-36.8-9.2-49.1C321.2,296.8,319,207.2,336.1,194            z"/></g></g></g></g></g></g></g></g><g><g><g><g><g><g><g><g><path class="st7" d="M481.5,347.1c-5,0-9.9-1-14.4-2.9c-11.6-5.1-19.6-16.7-20-28.8c-0.1-4.1,3.2-7.6,7.3-7.7            c4.1-0.1,7.6,3.2,7.7,7.3c0.2,6.4,4.7,12.7,11,15.5c6.3,2.7,14.2,2.1,20.6-1.6c6.3-3.6,11.2-10.1,13.7-17.8            c1.2-4,5.5-6.1,9.4-4.9c4,1.2,6.1,5.5,4.9,9.4c-3.5,11.2-11,20.8-20.5,26.3C495.2,345.3,488.3,347.1,481.5,347.1z"/></g></g></g></g></g></g></g></g><g><g><g><g><g><g><g><g><path class="st7" d="M392.2,288.9c-2.2,0-4.3-0.9-5.8-2.7c-2.6-3.2-2.2-7.9,1-10.6l21.2-17.5L384,251            c-4-1.2-6.3-5.3-5.1-9.3s5.3-6.3,9.3-5.1l38.3,11.1c2.7,0.8,4.7,3,5.3,5.7s-0.4,5.5-2.6,7.3L397,287.2            C395.6,288.4,393.9,288.9,392.2,288.9z"/></g></g></g></g></g></g></g></g><g><g><g><g><g><g><g><g><path class="st7" d="M570.8,287c-1.6,0-3.3-0.5-4.6-1.6l-31.3-24.7c-2.2-1.7-3.2-4.5-2.7-7.2s2.4-5,5.1-5.8l41-13.3            c3.9-1.3,8.2,0.9,9.5,4.8c1.3,3.9-0.9,8.2-4.8,9.5l-27.6,9l20.2,16c3.3,2.6,3.8,7.3,1.2,10.5C575.2,286,573,287,570.8,287            z"/></g></g></g></g></g></g></g></g><g><g><g><g><g><g><g><g><path class="st7" d="M317.5,470.4c1.6-7,7-13.7,13.9-14c6.1-0.3,11.6,4.5,14.3,10.3s3.2,12.3,3.6,18.7            c1.4,21.6,2.9,43.3,4.3,64.9c0.5,7.2,0.9,14.5-1.4,21.3c-2.3,6.7-8.3,12.7-15.1,12.5c-5.5-0.2-10.4-4.3-13.2-9.3            c-2.7-5.1-3.6-10.9-4.2-16.7C317.3,536.1,315.9,477.4,317.5,470.4z"/></g></g></g></g></g></g></g></g><g><g><g><g><g><g><g><g><path class="st7" d="M381.5,484.3c-0.1-4.9-0.3-9.8,0.7-14.5c1-4.7,3.1-9.3,6.7-11.6c6.2-4.1,14.4,0.1,18.5,7.1            c4.1,7,5.1,15.9,5.8,24.4c1.6,21.5,1.7,43.2,0.2,64.8c-0.3,5.1-0.8,10.3-2.6,15c-1.8,4.6-5.1,8.7-9.3,9.6            c-5.4,1.1-10.8-3.4-13.5-9.3c-5.4-11.9-4.4-32.4-5.6-45.5C381.1,509.7,382,498.9,381.5,484.3z"/></g></g></g></g></g></g></g></g><g><g><g><g><g><g><g><g><path class="st7" d="M444.5,483.2c-0.4-6.3-0.8-12.8,1.3-18.7c2.1-5.9,7.3-11.1,13.4-10.8c4.9,0.2,9.1,4,11.4,8.5            s3,9.7,3.6,14.7c3.2,26.9,5.6,54.1,3.3,81.1c-0.5,6.1-1.3,11.6-4.8,16.6c-3.5,5-11.4,5.8-17.4,1.2c-4-3.1-5.9-11.8-6.4-17            C446.2,531.3,446.2,510.9,444.5,483.2z"/></g></g></g></g></g></g></g></g><g><g><g><g><g><g><g><g><path class="st8" d="M537.3,456.9c-4.5,3.9-7.3,9.9-6.8,15.8c0.8,8.6,8.6,15.4,17.1,16.8c6.9,1.2,14.5-0.9,19.4-5.9            c4.9-5,6.8-13,4.1-19.5C565.3,450.4,548.2,447.5,537.3,456.9z"/></g></g></g></g></g></g></g></g><g><g><g><g><g><g><g><g><path class="st11" d="M606,460.6c-2.4,6.7-0.6,14.6,4.2,19.9c4.8,5.3,12.2,7.9,19.3,7.2c5.5-0.6,10.8-3.1,14.1-7.5            c4.7-6.4,3.9-15.9-1.2-21.9C633.1,447.4,611.6,445.1,606,460.6z"/></g></g></g></g></g></g></g></g><g><g><g><g><g><g><g><g><path class="st11" d="M540.9,537.2c-3.7,3.4-6.5,9.2-6.3,14.2c0.2,5.3,2.7,10,6.6,13.7c3.1,2.9,7.7,5.4,11.8,6.4            c7.1,1.7,15.1-1.9,18.9-8.1c3.9-6.2,3.8-14.6,0.1-21c-3-5.3-7.5-9.2-13.8-10.2C549.9,530.9,545.3,533.2,540.9,537.2z"/></g></g></g></g></g></g></g></g><g><g><g><g><g><g><g><g><path class="st8" d="M611.8,534.5c-4.4,5.8-5,14.1-2,20.6c2.5,5.4,7.5,9.7,13.2,11.5c7.2,2.2,15.7,0.3,21.1-5.1            c5.4-5.3,7.5-13.8,5-21C644.2,526,621.2,522.2,611.8,534.5z"/></g></g></g></g></g></g></g></g><g><g><g><g><g><g><g><g><path class="st11" d="M421.9,857.2c2.3-21.4-13.6-43.5-39.5-55s-60.5-11.6-85.8-0.5c-25.4,11.2-40.4,33.1-37.1,54.5            C312.4,857.2,369,856.2,421.9,857.2z"/></g></g></g></g></g></g></g></g><g><g><g><g><g><g><g><g><path class="st11" d="M710.2,860c2.3-21.4-13.6-43.5-39.5-55c-25.9-11.4-60.5-11.6-85.8-0.5            c-25.4,11.2-40.4,33.1-37.1,54.5C600.6,860,657.2,859,710.2,860z"/></g></g></g></g></g></g></g></g><g><g><g><g><g><g><g><g><path class="st11" d="M200.2,677.7c7.5-14.9,12-31.6,10.2-48.1c-1.8-16.5-10.6-32.7-25-41.1c-16-9.3-35.7-11-54.1-9.3            c-17.1,1.5-35.4,6.5-48.4,17.7c-12,10.3-17.1,26.8-16.8,42.6c0.3,15.8,3.6,36,11,45.8c6.7,8.8,22.8,10,30,1.7            c6.5-7.5,4.9-18.7,3.6-28.5s-3.8-20.7,1.7-29.1c7-10.8,24.1-14.2,37-13.4c11.1,0.7,23.1,5.7,27.3,16            c5.9,14.9-11.1,31.3-5.8,46.5c2.1,6.1,8.1,10.6,14.6,11S197.3,683.5,200.2,677.7z"/></g></g></g></g></g></g></g></g><g><g><g><g><g><g><g><g><path class="st7" d="M181.5,556.1c-0.3,0-0.6,0-0.9,0l-4.5-0.5c-29.9-3.4-59.9-6.8-89.8-10.2c-4.1-0.5-7.1-4.2-6.6-8.3            c0.5-4.1,4.2-7.1,8.3-6.6c29.9,3.4,59.9,6.8,89.8,10.2l4.5,0.5c4.1,0.5,7.1,4.2,6.6,8.3            C188.5,553.3,185.3,556.1,181.5,556.1z"/></g></g></g></g></g></g></g></g><g><g><g><g><g><g><g><g><path class="st7" d="M221.3,488.3c-2.8,0-5.4-1.5-6.7-4.2l-10.2-20.8c-10.5-21.6-21.1-43.1-31.6-64.7            c-1.8-3.7-0.3-8.2,3.4-10c3.7-1.8,8.2-0.3,10,3.4c10.5,21.6,21.1,43.1,31.6,64.7l10.2,20.8c1.8,3.7,0.3,8.2-3.4,10            C223.6,488.1,222.4,488.3,221.3,488.3z"/></g></g></g></g></g></g></g></g><g><g><g><g><g><g><g><g><path class="st7" d="M193.1,517.2c-1.4,0-2.8-0.4-4-1.2l-82.4-52.6c-3.5-2.2-4.5-6.9-2.3-10.4c2.2-3.5,6.9-4.5,10.4-2.3            l82.4,52.6c3.5,2.2,4.5,6.9,2.3,10.4C198,516,195.6,517.2,193.1,517.2z"/></g></g></g></g></g></g></g></g><g><g><g><g><g><g><g><g><path class="st11" d="M760,169.1c-7.5,14.8-12.1,31.6-10.4,48.1s10.5,32.8,24.8,41.2c15.9,9.4,35.7,11.1,54.1,9.6            c17.1-1.4,35.4-6.4,48.5-17.5c12-10.2,17.2-26.8,17-42.5c-0.2-15.8-3.4-36-10.8-45.8c-6.6-8.8-22.7-10.1-30-1.8            c-6.6,7.5-5,18.7-3.7,28.5s3.7,20.7-1.8,29.1c-7.1,10.8-24.2,14.1-37,13.3c-11.1-0.7-23.1-5.8-27.2-16.1            c-5.9-15,11.2-31.3,6-46.5c-2.1-6.1-8.1-10.7-14.5-11C768.4,157.2,762.9,163.4,760,169.1z"/></g></g></g></g></g></g></g></g><g><g><g><g><g><g><g><g><path class="st7" d="M872.3,316.9c-0.3,0-0.6,0-0.9-0.1c-31.4-3.7-62.8-7.4-94.2-11.1c-4.1-0.5-7.1-4.2-6.6-8.3            c0.5-4.1,4.2-7,8.3-6.6c31.4,3.7,62.8,7.4,94.2,11.1c4.1,0.5,7.1,4.2,6.6,8.3C879.3,314.1,876.1,316.9,872.3,316.9z"/></g></g></g></g></g></g></g></g><g><g><g><g><g><g><g><g><path class="st7" d="M779.5,459.1c-2.8,0-5.5-1.6-6.8-4.2c-10.3-21.2-20.5-42.4-30.7-63.6l-10.7-22.1            c-1.8-3.7-0.2-8.2,3.5-10c3.7-1.8,8.2-0.2,10,3.5l10.7,22.1c10.2,21.2,20.5,42.4,30.7,63.6c1.8,3.7,0.2,8.2-3.5,10            C781.7,458.9,780.6,459.1,779.5,459.1z"/></g></g></g></g></g></g></g></g><g><g><g><g><g><g><g><g><path class="st7" d="M848.6,397.6c-1.4,0-2.8-0.4-4.1-1.2l-82.2-53c-3.5-2.2-4.5-6.9-2.2-10.4c2.2-3.5,6.9-4.5,10.4-2.2            l82.2,53c3.5,2.2,4.5,6.9,2.2,10.4C853.5,396.4,851.1,397.6,848.6,397.6z"/></g></g></g></g></g></g></g></g><g><g><g><g><g><g><g><g><path class="st7" d="M410.8,677.2c-0.4,0-0.9,0-1.3-0.1c-37.8-6.8-76.5-10.7-115-11.8c-4.1-0.1-7.4-3.6-7.3-7.7            s3.6-7.4,7.7-7.3c39.2,1.1,78.6,5.1,117.2,12c4.1,0.7,6.8,4.6,6.1,8.7C417.6,674.6,414.4,677.2,410.8,677.2z"/></g></g></g></g></g></g></g></g><g><g><g><g><g><g><g><g><path class="st7" d="M280.6,753.1c-3.8,0-7-2.8-7.4-6.7c-0.4-4.1,2.5-7.8,6.6-8.3c39.8-4.3,80.2-5.6,120.3-3.9            c4.1,0.2,7.3,3.7,7.2,7.8c-0.2,4.1-3.7,7.3-7.8,7.2c-39.3-1.7-79-0.4-118,3.8C281.1,753.1,280.9,753.1,280.6,753.1z"/></g></g></g></g></g></g></g></g><g><g><g><g><g><g><g><g><path class="st7" d="M552.4,678.6c-3.8,0-7.1-2.9-7.5-6.7c-0.4-4.1,2.6-7.8,6.7-8.2l119.5-12c4.1-0.4,7.8,2.6,8.2,6.7            c0.4,4.1-2.6,7.8-6.7,8.2l-119.5,12C552.9,678.5,552.6,678.6,552.4,678.6z"/></g></g></g></g></g></g></g></g><g><g><g><g><g><g><g><g><path class="st7" d="M688.1,754.4c-0.3,0-0.5,0-0.8,0c-39.5-4-79.7-4.9-119.3-2.7c-4.1,0.2-7.7-2.9-7.9-7.1            c-0.2-4.1,2.9-7.7,7.1-7.9c40.4-2.2,81.3-1.3,121.6,2.8c4.1,0.4,7.1,4.1,6.7,8.2C695.2,751.5,691.9,754.4,688.1,754.4z"/></g></g></g></g></g></g></g></g></g></g><g class="st0" id="colored_x5F_line"><g class="st3"><path class="st8" d="M702.1,250.2c0.3-34.6-3.4-82.6-26.8-108.1c-20.5-22.3-52.7-32.2-82.7-35.8c-53-6.3-101.1-7.8-154.4-4.4    c-29,1.9-58.2,5.2-85.5,15.1c-27.3,9.9-52.9,26.8-68.7,51.1c-19.4,29.9-22.4,67.2-24.1,102.8c-5,103.3-4.2,224.8,2.5,328.1    c0.9,14.1,12.6,25,26.7,25c107.2-0.1,253.4-0.8,388.2-10.8c13.9-1,24.6-12.5,24.7-26.4C702.9,476,701.2,360.9,702.1,250.2z     M352.1,571.6c-2.3,6.7-8.3,12.7-15.1,12.5c-5.5-0.2-10.4-4.3-13.2-9.3c-2.7-5.1-3.6-10.9-4.2-16.7c-2.3-22-3.7-80.7-2.1-87.7    c1.6-7,7-13.7,13.9-14c6.1-0.3,11.6,4.5,14.3,10.3s3.2,12.3,3.6,18.7c1.4,21.6,2.9,43.3,4.3,64.9    C354,557.5,354.4,564.9,352.1,571.6z M413.4,554.5c-0.3,5.1-0.8,10.3-2.6,15s-5.1,8.7-9.3,9.6c-5.4,1.1-10.8-3.4-13.5-9.3    c-5.4-11.9-4.4-32.4-5.6-45.5c-1.3-14.6-0.5-25.3-0.9-39.9c-0.1-4.9-0.3-9.8,0.7-14.5c1-4.7,3.1-9.3,6.7-11.6    c6.2-4.1,14.4,0.1,18.5,7.1c4.1,7,5.1,15.9,5.8,24.4C414.7,511.2,414.8,532.9,413.4,554.5z M477.5,558.1    c-0.5,6.1-1.3,11.6-4.8,16.6s-11.4,5.8-17.4,1.2c-4-3.1-5.9-11.8-6.4-17c-2.7-27.5-2.6-48-4.4-75.6c-0.4-6.3-0.8-12.8,1.3-18.7    c2.1-5.9,7.3-11.1,13.4-10.8c4.9,0.2,9.1,4,11.4,8.5s3,9.7,3.6,14.7C477.3,503.9,479.7,531.1,477.5,558.1z M537.3,456.9    c10.9-9.4,28-6.5,33.8,7.3c2.7,6.5,0.9,14.5-4.1,19.5s-12.5,7.1-19.4,5.9c-8.5-1.4-16.3-8.3-17.1-16.8    C530,466.8,532.8,460.8,537.3,456.9z M572,563.3c-3.9,6.2-11.8,9.8-18.9,8.1c-4.1-1-8.7-3.5-11.8-6.4c-3.9-3.6-6.4-8.3-6.6-13.7    c-0.2-5,2.6-10.8,6.3-14.2c4.4-4,9-6.3,17.5-5c6.3,1,10.8,4.9,13.8,10.2C575.7,548.8,575.9,557.1,572,563.3z M382.8,377.1    c-12.2,0.2-44.1-0.9-52.5-9.6c-11.3-11.8-9.2-36.8-9.2-49.1c0.1-21.7-2.2-111.3,14.9-124.4c8.9-6.8,21.4-6.1,32.6-6.1    c78,0,156,0.1,233.9,0.1c17.1,0,30.6,1.4,40.2,15.5c6.6,9.6,6.1,22.3,5.4,33.9c-1.7,26.4-0.1,52.9-1.8,79.3    c-0.9,14.3,0.5,38.2-9.2,48.7c-9.9,10.7-22.1,8.7-45.7,9.6C527.2,377.6,460.1,375.9,382.8,377.1z M606,460.6    c5.6-15.5,27.2-13.2,36.4-2.3c5.1,6,5.9,15.6,1.2,21.9c-3.2,4.4-8.6,7-14.1,7.5c-7.1,0.7-14.5-1.9-19.3-7.2    C605.4,475.2,603.6,467.3,606,460.6z M644.1,561.6c-5.4,5.3-13.8,7.3-21.1,5.1c-5.7-1.8-10.7-6-13.2-11.5    c-3.1-6.6-2.5-14.9,2-20.6c9.5-12.3,32.4-8.5,37.4,6.1C651.6,547.8,649.5,556.3,644.1,561.6z"/></g><g class="st3"><path class="st8" d="M200.2,677.7c7.5-14.9,12-31.6,10.2-48.1c-1.8-16.5-10.6-32.7-25-41.1c-16-9.3-35.7-11-54.1-9.3    c-17.1,1.5-35.4,6.5-48.4,17.7c-12,10.3-17.1,26.8-16.8,42.6c0.3,15.8,3.6,36,11,45.8c6.7,8.8,22.8,10,30,1.7    c6.5-7.5,4.9-18.7,3.6-28.5s-3.8-20.7,1.7-29.1c7-10.8,24.1-14.2,37-13.4c11.1,0.7,23.1,5.7,27.3,16c5.9,14.9-11.1,31.3-5.8,46.5    c2.1,6.1,8.1,10.6,14.6,11S197.3,683.5,200.2,677.7z"/></g><g class="st3"><path class="st8" d="M760,169.1c-7.5,14.8-12.1,31.6-10.4,48.1s10.5,32.8,24.8,41.2c15.9,9.4,35.7,11.1,54.1,9.6    c17.1-1.4,35.4-6.4,48.5-17.5c12-10.2,17.2-26.8,17-42.5c-0.2-15.8-3.4-36-10.8-45.8c-6.6-8.8-22.7-10.1-30-1.8    c-6.6,7.5-5,18.7-3.7,28.5s3.7,20.7-1.8,29.1c-7.1,10.8-24.2,14.1-37,13.3c-11.1-0.7-23.1-5.8-27.2-16.1c-5.9-15,11.2-31.3,6-46.5    c-2.1-6.1-8.1-10.7-14.5-11C768.4,157.2,762.9,163.4,760,169.1z"/></g><g class="st3"><path class="st16" d="M379.7,384.7c-13.5,0-44.5-1.2-54.7-11.9c-12.1-12.7-11.7-34.8-11.4-49.5c0-1.8,0.1-3.4,0.1-4.8    c0-2,0-4.6,0-7.6c-0.4-77.1,4.7-112.6,17.8-122.7h0c10.2-7.8,23-7.7,34.3-7.7c1,0,1.9,0,2.8,0l233.9,0.1    c17.7,0,34.6,1.5,46.4,18.8c8.3,12.2,7.4,27.5,6.7,38.6c-0.8,13-0.9,26.3-0.9,39.2c0,13.1-0.1,26.7-0.9,40.1    c-0.2,2.5-0.2,5.4-0.3,8.5c-0.5,15.2-1,34.2-10.9,44.8c-10.3,11.2-22.6,11.4-39.7,11.7c-3.5,0.1-7.2,0.1-11.2,0.3    c-37.9,1.4-76.8,1.5-118,1.5c-29,0-59,0-90.7,0.5C382,384.7,380.9,384.7,379.7,384.7z M362.7,195.4c-8.3,0-16.6,0.4-22,4.6    c0,0,0,0,0,0c-1.2,0.9-7.5,7.6-10.4,46.2c-1.8,23.6-1.6,49.2-1.6,64.5c0,3.1,0,5.7,0,7.7c0,1.5,0,3.2-0.1,5.1    c-0.2,11.5-0.6,30.7,7.2,38.9c4.2,4.3,25.2,7.6,46.9,7.3c31.9-0.5,61.9-0.5,91-0.5c41.1,0,79.9,0,117.5-1.5    c4.2-0.2,8.1-0.2,11.5-0.3c16.4-0.3,23.2-0.7,29-6.9c6-6.6,6.5-23.1,6.9-35.1c0.1-3.2,0.2-6.2,0.4-9c0.8-13,0.9-26.3,0.9-39.2    c0-13.1,0.1-26.7,0.9-40.1c0.7-11.7,0.9-21.9-4.1-29.2c-7.1-10.4-16.7-12.3-34-12.3l-233.9-0.1c-1,0-1.9,0-2.9,0    C364.7,195.4,363.7,195.4,362.7,195.4z M336.1,194L336.1,194L336.1,194z"/></g><g class="st3"><path class="st16" d="M481.5,347.1c-5,0-9.9-1-14.4-2.9c-11.6-5.1-19.6-16.7-20-28.8c-0.1-4.1,3.2-7.6,7.3-7.7    c4.1-0.1,7.6,3.2,7.7,7.3c0.2,6.4,4.7,12.7,11,15.5c6.3,2.7,14.2,2.1,20.6-1.6c6.3-3.6,11.2-10.1,13.7-17.8c1.2-4,5.5-6.1,9.4-4.9    c4,1.2,6.1,5.5,4.9,9.4c-3.5,11.2-11,20.8-20.5,26.3C495.2,345.3,488.3,347.1,481.5,347.1z"/></g><g class="st3"><path class="st16" d="M392.2,288.9c-2.2,0-4.3-0.9-5.8-2.7c-2.6-3.2-2.2-7.9,1-10.6l21.2-17.5L384,251c-4-1.2-6.3-5.3-5.1-9.3    s5.3-6.3,9.3-5.1l38.3,11.1c2.7,0.8,4.7,3,5.3,5.7s-0.4,5.5-2.6,7.3L397,287.2C395.6,288.4,393.9,288.9,392.2,288.9z"/></g><g class="st3"><path class="st16" d="M570.8,287c-1.6,0-3.3-0.5-4.6-1.6l-31.3-24.7c-2.2-1.7-3.2-4.5-2.7-7.2s2.4-5,5.1-5.8l41-13.3    c3.9-1.3,8.2,0.9,9.5,4.8c1.3,3.9-0.9,8.2-4.8,9.5l-27.6,9l20.2,16c3.3,2.6,3.8,7.3,1.2,10.5C575.2,286,573,287,570.8,287z"/></g><g class="st3"><path class="st16" d="M337.3,591.6c-0.2,0-0.4,0-0.5,0c-7.8-0.2-15.3-5.3-19.5-13.3c-3.3-6.2-4.4-13-5-19.5c-2-19.7-4-81.2-2-90.1    c3-13.1,12.9-19.5,20.9-19.8c8.7-0.4,17.1,5.3,21.4,14.6c3.3,7.1,3.8,14.7,4.3,21.4l4.3,64.9c0.5,7.1,1.1,16-1.8,24.2    C355.6,584.5,346.6,591.6,337.3,591.6z M324.8,472.1c-1.3,6.6,0,62.8,2.3,85.3c0.6,5.7,1.4,10.3,3.3,13.9c1.7,3.1,4.5,5.3,6.8,5.4    c2.9,0.1,6.3-3.2,7.8-7.4c1.9-5.4,1.5-12,1-18.3l-4.3-64.9c-0.4-5.6-0.8-11.4-2.9-16c-1.6-3.5-4.7-6.1-7.2-6    C328.9,464.1,325.8,467.7,324.8,472.1z"/></g><g class="st3"><path class="st16" d="M399.9,586.7c-7.5,0-14.8-5.3-18.7-13.8c-4.5-10-5.1-24.1-5.6-36.5c-0.2-4.2-0.3-8.1-0.6-11.4    c-0.9-9.5-0.8-17.3-0.8-25.6c0-4.7,0-9.5-0.1-14.7l0,0c-0.1-5-0.3-10.6,0.8-16.2c1.5-7.3,5-13.1,9.8-16.3c4-2.7,8.8-3.5,13.7-2.4    c6.1,1.4,11.9,5.9,15.5,11.9c5,8.4,6.1,18.7,6.8,27.6c1.6,21.8,1.7,44,0.2,65.8c-0.4,5.6-0.9,11.6-3,17.1    c-2.9,7.6-8.4,12.9-14.7,14.3C402,586.6,400.9,586.7,399.9,586.7z M394.2,464.1c-0.6,0-0.9,0.2-1.2,0.4c-1.5,1-2.8,3.7-3.5,6.8    c-0.8,3.9-0.7,8.4-0.5,12.8v0c0.2,5.5,0.1,10.5,0.1,15.2c0,7.9,0,15.4,0.7,24.2c0.3,3.7,0.5,7.8,0.7,12.2    c0.4,11,0.9,23.6,4.3,30.9c1.6,3.6,4.2,5.2,5.1,5c0.9-0.2,2.6-1.8,3.8-4.9c1.4-3.6,1.8-8.1,2.1-12.8c1.4-21.1,1.4-42.6-0.2-63.7    c-0.6-7.6-1.4-15.5-4.7-21.1c-1.5-2.5-3.8-4.4-5.9-4.9C394.7,464.2,394.5,464.1,394.2,464.1z"/></g><g class="st3"><path class="st16" d="M464,586.4c-4.7,0-9.4-1.6-13.3-4.6c-7.1-5.5-8.9-18.4-9.3-22.2c-1.7-17.2-2.3-31.5-3-46.6    c-0.4-9.2-0.8-18.8-1.5-29.3c0,0,0,0,0,0c-0.4-6.3-0.9-14.2,1.7-21.6c3.4-9.7,12-16.2,20.8-15.8c7.1,0.3,13.9,5.1,17.7,12.5    c2.8,5.5,3.7,11.6,4.4,17.3c3.1,26.4,5.7,54.6,3.3,82.6c-0.6,6.6-1.5,13.7-6.1,20.2c-2.7,3.9-7,6.4-11.9,7.2    C465.9,586.3,465,586.4,464,586.4z M451.9,482.8c0.7,10.7,1.1,20.3,1.5,29.6c0.6,14.9,1.3,29,2.9,45.8c0.6,5.8,2.5,10.8,3.6,11.8    c1.5,1.1,3.2,1.6,4.8,1.4c0.5-0.1,1.4-0.3,1.9-1c2.3-3.2,2.9-6.9,3.4-12.9c2.2-26.7-0.3-54.1-3.3-79.6c-0.5-4.5-1.2-8.8-2.9-12.2    c-1.3-2.5-3.4-4.3-5.1-4.4c-2.1-0.1-4.8,2.6-5.9,5.8C451.2,471.6,451.6,477.3,451.9,482.8L451.9,482.8z"/></g><g class="st3"><path class="st16" d="M551.5,497.4c-1.7,0-3.4-0.1-5.1-0.4c-12.4-2.1-22.2-12-23.3-23.5c-0.8-8.1,2.8-16.6,9.3-22.2l0,0    c7.2-6.2,17-8.7,26.1-6.5c8.8,2.1,15.9,8.1,19.5,16.5c3.9,9.2,1.6,20.3-5.6,27.7C567.1,494.3,559.4,497.4,551.5,497.4z M551.9,459    c-3.5,0-7,1.3-9.7,3.7c0,0,0,0,0,0c-2.8,2.4-4.5,6.1-4.2,9.4c0.5,4.7,5.2,9.2,10.9,10.2c4.7,0.8,9.8-0.7,12.8-3.7    c3-3,4-7.8,2.5-11.3c-1.7-4-5-6.8-9.1-7.8C554.1,459.1,553,459,551.9,459z M537.3,456.9L537.3,456.9L537.3,456.9z"/></g><g class="st3"><path class="st16" d="M627.2,495.3c-8.6,0-17-3.6-22.6-9.8c-6.8-7.5-9-18.3-5.6-27.5l0,0c3-8.3,9.8-13.9,18.6-15.5    c10.9-2,23.4,2.5,30.5,10.9c7.5,8.8,8.1,22.2,1.5,31.2c-4.3,5.9-11.4,9.7-19.4,10.6C629.2,495.3,628.2,495.3,627.2,495.3z     M613,463.1c-1.4,4-0.3,9,2.7,12.4c3,3.4,8.1,5.2,13,4.7c3.7-0.4,7-2.1,8.8-4.5c2.5-3.4,2.1-9.1-0.9-12.6    c-3.7-4.3-10.7-6.9-16.4-5.8C616.6,457.9,614.2,459.8,613,463.1L613,463.1z"/></g><g class="st3"><path class="st16" d="M556.6,579.4c-1.8,0-3.6-0.2-5.3-0.6c-5.3-1.3-11.1-4.4-15.2-8.2c-5.6-5.2-8.7-11.7-9-18.8    c-0.3-7,3.2-15,8.7-20l0,0c4.9-4.5,11.5-8.8,23.7-6.9c8.1,1.3,14.7,6.1,19.1,13.9c5.1,9,5,20.2-0.3,28.6    C573.7,574.8,565.1,579.4,556.6,579.4z M553.9,539.3c-3.5,0-5.5,1.2-8,3.4c0,0,0,0,0,0c-2.2,2-3.9,5.8-3.8,8.3    c0.1,3.1,1.5,6,4.2,8.5c2.2,2,5.7,3.9,8.5,4.6c3.8,0.9,8.6-1.2,10.8-4.8c2.3-3.7,2.3-9.2,0-13.3c-2.2-3.8-4.9-6-8.4-6.5    C556,539.4,554.9,539.3,553.9,539.3z M540.9,537.2L540.9,537.2L540.9,537.2z"/></g><g class="st3"><path class="st16" d="M629.2,575.1c-2.8,0-5.6-0.4-8.4-1.2c-7.7-2.4-14.4-8.2-17.8-15.5c-4.4-9.3-3.3-20.5,2.8-28.4    c6.1-7.9,16.6-11.7,27.5-9.9c10.9,1.8,19.7,8.7,22.9,18.1c3.4,9.8,0.6,21.4-6.9,28.7C644,572.2,636.6,575.1,629.2,575.1z     M628,534.7c-3.7,0-7.8,1.2-10.3,4.5l0,0c-2.6,3.4-3.1,8.7-1.1,12.9c1.7,3.5,4.9,6.3,8.6,7.5c4.6,1.4,10.2,0.1,13.6-3.2    c3.4-3.3,4.7-8.8,3.2-13.2c-1.7-5-6.8-7.5-11.1-8.2C630,534.7,629,534.7,628,534.7z M611.8,534.5L611.8,534.5L611.8,534.5z"/></g><g class="st3"><path class="st8" d="M421.9,857.2c2.3-21.4-13.6-43.5-39.5-55s-60.5-11.6-85.8-0.5c-25.4,11.2-40.4,33.1-37.1,54.5    C312.4,857.2,369,856.2,421.9,857.2z"/></g><g class="st3"><path class="st8" d="M710.2,860c2.3-21.4-13.6-43.5-39.5-55c-25.9-11.4-60.5-11.6-85.8-0.5c-25.4,11.2-40.4,33.1-37.1,54.5    C600.6,860,657.2,859,710.2,860z"/></g><path class="st17" d="M257.2,464c-11.8,0.2-22.6,2.4-32.4,6.7l-6.8-14c-9.4-19.3-18.9-38.6-28.3-57.9c21.6-9.9,44.7-14.7,67.1-14.1   c4.1,0.1,7.6-3.1,7.7-7.3s-3.1-7.6-7.3-7.7c-27.1-0.8-55.1,5.7-80.8,18.8c0,0,0,0,0,0c0,0,0,0,0,0c0,0-0.1,0-0.1,0   c-22.6,11.5-43.2,28-59.6,47.6c-4.5,5.3-8.6,11-12.2,16.8c0,0,0,0,0,0c0,0,0,0,0,0c0,0,0,0,0,0.1c-14.5,23.3-22.5,50.9-24.5,84.3   c-1,16.5-0.6,34.7,1.3,55.7c0.3,3.9,3.6,6.8,7.5,6.8c0.2,0,0.4,0,0.7,0c4.1-0.4,7.2-4,6.8-8.1c-1.5-16.9-2-31.9-1.6-45.6   c26.3,3,52.6,6,78.9,9c-0.8,10.4-1,20.9-1,30.3c0,4.1,3.3,7.5,7.5,7.5c0,0,0,0,0,0c4.1,0,7.5-3.3,7.5-7.5c0-11.2,0.3-24.2,1.7-36.1   c1.8-15.1,5.2-26.6,10.6-36.1c0.5-0.8,1-1.6,1.5-2.5c6.7-10.4,14.8-18.4,24-23.7c9.3-5.4,20.2-8.2,32.3-8.3   c4.1-0.1,7.5-3.5,7.4-7.6C264.7,467.2,261.3,463.9,257.2,464z M175.1,540.3c-26.6-3-53.2-6.1-79.8-9.1c2.2-24.6,8.1-45.6,17.9-63.6   l70,44.7C179.5,520.4,176.9,529.6,175.1,540.3z M190.8,499.4l-69.7-44.5c2.2-3.1,4.5-6.1,6.9-9c13.5-16.1,30-29.9,48.2-40.3   c9.4,19.2,18.8,38.5,28.2,57.7l7.2,14.8C203.9,483.6,196.9,490.7,190.8,499.4z"/><path class="st17" d="M878.7,254.1c-0.3-4.1-4-7.2-8.1-6.8c-4.1,0.3-7.2,4-6.8,8.1c1.4,16.9,1.9,31.9,1.4,45.6   c-26.3-3.1-52.6-6.2-78.9-9.3c0.9-10.4,1.1-20.9,1.2-30.3c0-4.1-3.3-7.5-7.4-7.6c0,0,0,0-0.1,0c-4.1,0-7.5,3.3-7.5,7.4   c-0.1,11.2-0.4,24.2-1.8,36c-1.8,15.1-5.3,26.6-10.8,36c-0.5,0.8-12.2,18.7-25.6,26c-9.4,5.2-20.2,8.1-32.3,8.2   c-4.1,0-7.5,3.4-7.4,7.6c0,4.1,3.4,7.4,7.5,7.4c0,0,0.1,0,0.1,0c11.8-0.1,22.6-2.3,32.4-6.6l7.4,15.3c9.1,18.9,18.3,37.9,27.5,56.8   c-21.7,9.8-44.7,14.5-67.1,13.8c-4.1-0.1-7.6,3.1-7.7,7.3c-0.1,4.1,3.1,7.6,7.3,7.7c1.6,0.1,3.3,0.1,5,0.1   c25.6,0,51.7-6.4,75.9-18.6c0,0,0,0,0,0c0,0,0,0,0,0c0,0,0.1,0,0.1-0.1c22.6-11.4,43.3-27.8,59.8-47.4c4.5-5.3,8.6-11,12.2-16.8   c0,0,0,0,0,0c0,0,0,0,0,0c0,0,0,0,0-0.1c14.6-23.3,22.7-50.8,24.9-84.2C880.9,293.4,880.5,275.2,878.7,254.1z M846.1,379.5   l-69.9-45c3.8-8.1,6.5-17.2,8.3-28c26.6,3.1,53.2,6.3,79.8,9.4C862,340.6,856,361.5,846.1,379.5z M831.2,401.2   c-13.6,16.1-30.2,29.8-48.4,40.1c-9.1-18.8-18.2-37.7-27.3-56.6l-7.8-16.1c7.8-5.5,14.8-12.6,20.9-21.2l69.5,44.8   C835.9,395.3,833.6,398.3,831.2,401.2z"/><path class="st17" d="M429.4,616.1c-3.8-1.5-8.2,0.4-9.7,4.2c-5.8,14.7-10.5,28.1-14.2,40.9c-33.1-5.6-66.9-9.1-100.5-10.5   c2.9-8.1,6.1-16,9.7-23.6c1.8-3.7,0.2-8.2-3.6-10c-3.7-1.8-8.2-0.2-10,3.6c-24,50.8-32.4,111.2-26.6,190.1c0.3,3.9,3.6,7,7.5,7   c0.2,0,0.4,0,0.6,0c4.1-0.3,7.2-3.9,6.9-8c-1.5-20.3-2-39.3-1.5-57.2c34.4-3.4,69.4-4.6,104-3.4c-0.7,18.9-0.5,39.3-0.2,63.2   c0.1,4.1,3.4,7.4,7.5,7.4c0,0,0.1,0,0.1,0c4.1-0.1,7.4-3.5,7.4-7.6c-1.2-76.9-0.5-117,26.9-186.2   C435.1,622,433.3,617.6,429.4,616.1z M288.5,737.3c1.6-26.2,5.5-50,11.7-71.8c33.9,1.2,67.9,4.6,101.3,10.2   c-4.9,19.8-7.5,38.5-8.9,58.3C358,732.8,323,733.9,288.5,737.3z"/><path class="st17" d="M679.2,657.5c-0.1-0.6-11.8-30.3-19.7-46c-1.8-3.7-6.3-5.2-10.1-3.4c-3.7,1.8-5.2,6.3-3.4,10.1   c6,12.1,11.1,23.5,15.3,34.4l-104,10.5c-5.8-15.2-13.1-30.4-22.3-46.1c-2.1-3.6-6.7-4.8-10.3-2.7c-3.6,2.1-4.8,6.7-2.7,10.3   c9.7,16.5,23.1,49.2,23.2,49.5c15.2,43.1,17.6,86.5,15.7,139.8c-0.1,4.1,3.1,7.6,7.2,7.8c0.1,0,0.2,0,0.3,0c4,0,7.3-3.2,7.5-7.2   c0.8-22.5,0.8-43.3-0.5-63c35-1.6,70.3-0.7,105.2,2.5c0.5,18.3,0.1,38.1-0.8,61c-0.2,4.1,3.1,7.6,7.2,7.8c0.1,0,0.2,0,0.3,0   c4,0,7.3-3.2,7.5-7.2C697.6,750.5,696.7,707.5,679.2,657.5z M574.5,736.3c-2.1-20.2-5.9-39.6-11.9-58.8l104.2-10.5   c8,24.1,11.9,46.6,13.5,71.6C645.1,735.5,609.6,734.7,574.5,736.3z"/></g></svg>