<?xml version="1.0" ?><svg viewBox="0 0 24 24" xmlns="http://www.w3.org/2000/svg"><title/><g id="tie"><path d="M18.5,10h-1a.5.5,0,0,0,0,1h1a.5.5,0,0,0,0-1Z"/><path d="M20.5,4H18.71L16.85,2.15A.36.36,0,0,0,16.69,2a.43.43,0,0,0-.19,0h-9a.43.43,0,0,0-.19,0,.36.36,0,0,0-.16.11L5.29,4H3.5A1.5,1.5,0,0,0,2,5.5v13A1.5,1.5,0,0,0,3.5,20H10l1.6,1.83a.51.51,0,0,0,.76,0L14,20H20.5A1.5,1.5,0,0,0,22,18.5V5.5A1.5,1.5,0,0,0,20.5,4ZM12.29,8h-.58l-1.5-1.5.5-.5h2.58l.5.5Zm1-3H10.71l-2-2h6.58Zm.92.5L16.5,3.21,17.79,4.5,15.5,6.79ZM7.5,3.21,9.79,5.5,8.5,6.79,6.21,4.5ZM3.5,19a.5.5,0,0,1-.5-.5V5.5A.5.5,0,0,1,3.5,5H5.29L8.15,7.85a.48.48,0,0,0,.7,0l.65-.64,1.43,1.43L8,17.34a.51.51,0,0,0,.09.49l1,1.17ZM12,20.74,9.06,17.39,11.86,9h.28l2.8,8.39Zm9-2.24a.5.5,0,0,1-.5.5H14.85l1-1.17a.51.51,0,0,0,.09-.49l-2.9-8.7L14.5,7.21l.65.64a.48.48,0,0,0,.7,0L18.71,5H20.5a.5.5,0,0,1,.5.5Z"/></g></svg>