<?xml version="1.0" encoding="UTF-8" standalone="no"?> <svg width="64" height="64" viewBox="0 0 64 64" fill="none" xmlns="http://www.w3.org/2000/svg">
<path d="M56 23.82H40.82L34.26 8.67004C34.07 8.22819 33.7547 7.8517 33.353 7.58717C32.9514 7.32263 32.481 7.18164 32 7.18164C31.519 7.18164 31.0486 7.32263 30.647 7.58717C30.2453 7.8517 29.93 8.22819 29.74 8.67004L23.18 23.82H8C7.20435 23.82 6.44129 24.1361 5.87868 24.6987C5.31607 25.2613 5 26.0244 5 26.82C5 27.6157 5.31607 28.3788 5.87868 28.9414C6.44129 29.504 7.20435 29.82 8 29.82H9.14L12.61 53.24C12.7604 54.234 13.2615 55.1412 14.0227 55.7978C14.7838 56.4545 15.7548 56.817 16.76 56.82H47.24C48.2452 56.817 49.2162 56.4545 49.9773 55.7978C50.7385 55.1412 51.2396 54.234 51.39 53.24L54.86 29.82H56C56.7956 29.82 57.5587 29.504 58.1213 28.9414C58.6839 28.3788 59 27.6157 59 26.82C59 26.0244 58.6839 25.2613 58.1213 24.6987C57.5587 24.1361 56.7956 23.82 56 23.82V23.82ZM31.57 9.47004C31.6068 9.38667 31.667 9.31579 31.7434 9.26603C31.8197 9.21627 31.9089 9.18978 32 9.18978C32.0911 9.18978 32.1803 9.21627 32.2566 9.26603C32.333 9.31579 32.3932 9.38667 32.43 9.47004L38.64 23.83H25.36L31.57 9.47004ZM39.51 25.82L40.37 27.82H23.63L24.49 25.82H39.51ZM7 26.82C7 26.5548 7.10536 26.3005 7.29289 26.1129C7.48043 25.9254 7.73478 25.82 8 25.82H22.31L21.45 27.82H8C7.73478 27.82 7.48043 27.7147 7.29289 27.5272C7.10536 27.3396 7 27.0853 7 26.82ZM49.42 52.94C49.3392 53.4613 49.0755 53.9368 48.676 54.2813C48.2766 54.6258 47.7675 54.8168 47.24 54.82H16.76C16.2325 54.8168 15.7234 54.6258 15.324 54.2813C14.9245 53.9368 14.6608 53.4613 14.58 52.94L11.16 29.82H20.58L19.08 33.28C19.0281 33.4009 19.0006 33.5307 18.9989 33.6622C18.9972 33.7937 19.0214 33.9242 19.0702 34.0463C19.1189 34.1684 19.1912 34.2797 19.283 34.3739C19.3748 34.468 19.4842 34.5432 19.605 34.595C19.7258 34.6469 19.8557 34.6745 19.9871 34.6762C20.1186 34.6779 20.2491 34.6536 20.3712 34.6049C20.4933 34.5561 20.6047 34.4838 20.6988 34.392C20.793 34.3003 20.8681 34.1909 20.92 34.07L22.76 29.82H41.24L43.08 34.07C43.1848 34.314 43.3822 34.5064 43.6288 34.6049C43.8754 34.7033 44.151 34.6998 44.395 34.595C44.639 34.4903 44.8314 34.2929 44.9298 34.0463C45.0283 33.7997 45.0248 33.524 44.92 33.28L43.42 29.82H52.84L49.42 52.94ZM56 27.82H42.55L41.69 25.82H56C56.2652 25.82 56.5196 25.9254 56.7071 26.1129C56.8946 26.3005 57 26.5548 57 26.82C57 27.0853 56.8946 27.3396 56.7071 27.5272C56.5196 27.7147 56.2652 27.82 56 27.82Z" fill="black"/>
<path d="M23 32.8203C22.7348 32.8203 22.4804 32.9257 22.2929 33.1132C22.1054 33.3007 22 33.5551 22 33.8203C22 34.3507 21.7893 34.8595 21.4142 35.2345C21.0391 35.6096 20.5304 35.8203 20 35.8203C19.4696 35.8203 18.9609 35.6096 18.5858 35.2345C18.2107 34.8595 18 34.3507 18 33.8203C18 33.5551 17.8946 33.3007 17.7071 33.1132C17.5196 32.9257 17.2652 32.8203 17 32.8203C16.7348 32.8203 16.4804 32.9257 16.2929 33.1132C16.1054 33.3007 16 33.5551 16 33.8203C16 34.8812 16.4214 35.8986 17.1716 36.6487C17.9217 37.3989 18.9391 37.8203 20 37.8203C21.0609 37.8203 22.0783 37.3989 22.8284 36.6487C23.5786 35.8986 24 34.8812 24 33.8203C24 33.5551 23.8946 33.3007 23.7071 33.1132C23.5196 32.9257 23.2652 32.8203 23 32.8203Z" fill="black"/>
<path d="M42 33.8203C42 33.5551 41.8946 33.3007 41.7071 33.1132C41.5196 32.9257 41.2652 32.8203 41 32.8203C40.7348 32.8203 40.4804 32.9257 40.2929 33.1132C40.1054 33.3007 40 33.5551 40 33.8203C40 34.8812 40.4214 35.8986 41.1716 36.6487C41.9217 37.3989 42.9391 37.8203 44 37.8203C45.0609 37.8203 46.0783 37.3989 46.8284 36.6487C47.5786 35.8986 48 34.8812 48 33.8203C48 33.5551 47.8946 33.3007 47.7071 33.1132C47.5196 32.9257 47.2652 32.8203 47 32.8203C46.7348 32.8203 46.4804 32.9257 46.2929 33.1132C46.1054 33.3007 46 33.5551 46 33.8203C46 34.3507 45.7893 34.8595 45.4142 35.2345C45.0391 35.6096 44.5304 35.8203 44 35.8203C43.4696 35.8203 42.9609 35.6096 42.5858 35.2345C42.2107 34.8595 42 34.3507 42 33.8203Z" fill="black"/>
</svg>
