<?xml version="1.0" encoding="utf-8"?><svg version="1.1" id="Layer_1" xmlns="http://www.w3.org/2000/svg" xmlns:xlink="http://www.w3.org/1999/xlink" x="0px" y="0px" viewBox="0 0 122.88 122.62" style="enable-background:new 0 0 122.88 122.62" xml:space="preserve"><style type="text/css">.st0{fill-rule:evenodd;clip-rule:evenodd;}</style><g><path class="st0" d="M31.61,60.59l5.87-0.15l2.78-0.07l4.22,4.9c0.99,1.15,2,2.31,3.11,3.42c-0.78,1.17-4.3,4.15-7.42,6.79 c-1.38,1.17-2.69,2.28-3.7,3.19c-7.92,3.08-15.66,6.23-21.66,10c-4.6,2.88-6.98,5.06-8.84,8.55c-4.92,9.23-3.79,7.99-5.79,17.44 c-0.62,8.33-0.01,7.91,5.84,7.81c4.22-0.07,8.67-0.11,13.3-0.13L15.2,90.87c7.4-3.4,12.58-6.37,21.32-9.42 c10.72,21.64,44.87,17.88,48.54-0.95c7.65,2.47,15.04,6.85,22.62,10.04l-4.71,32.08c4.85-0.03,9.53-0.08,13.98-0.17 c6.24-0.12,6.3,0.16,5.68-6.34c-0.69-7.27-3.01-13.4-5.95-18.91c-1.86-3.49-4.24-5.66-8.84-8.55c-6.06-3.8-13.9-6.99-21.91-10.09 c-0.72-0.65-1.53-1.35-2.36-2.08c-2.63-2.3-5.58-4.89-6.78-6.37c1.88-1.65,3.46-3.54,5.03-5.42l2.65-3.19 c0.04-0.05,0.24-0.28,0.54-0.63c0.15-0.18,0.31-0.36,0.48-0.56h5.79c8.54-18.28,3.12-45.41-14.34-56.91C71.57-0.14,67.72,0,61.44,0 c-7.2,0-10.87,0.23-17.04,4.31c-9.09,6.01-14.67,16.41-17.02,30.85C26.89,42.35,26.58,54.79,31.61,60.59L31.61,60.59z M41.63,57.97 c-4.78-16.59-2.45-31.84,10.62-44.9c2.32,7.5,7.52,13.7,16.38,18.27c4.24,3.14,8.33,6.94,12.29,11.3c0.7-2.89-1.98-6.41-5.23-10.03 c3.01,1.49,5.77,3.56,7.73,7.56c2.27,4.64,2.24,8.55,1.49,13.59c-0.22,1.46-0.52,2.85-0.91,4.18c-0.26,0.1-0.49,0.25-0.65,0.45 c-0.36,0.44-0.72,0.87-1.05,1.25c-0.1,0.12-0.19,0.22-0.55,0.66l-2.65,3.19c-2.02,2.43-4.07,4.86-6.66,6.63 c-2.47,1.69-5.51,2.81-9.67,2.8c-3.83-0.01-6.74-1.09-9.13-2.69c-2.51-1.67-4.53-3.96-6.47-6.2l-4.84-5.62 C42.16,58.21,41.91,58.06,41.63,57.97L41.63,57.97z M81.1,77.84c-2.5-2.19-5.12-4.53-6.4-6.1l-0.09,0.06 c-3.02,2.06-6.74,3.44-11.84,3.43c-4.76-0.01-8.34-1.34-11.27-3.29c-0.7-0.47-1.36-0.97-1.98-1.49c-1.46,1.83-4.71,4.58-7.63,7.05 l-0.64,0.54C40.79,94.45,76.31,99.42,81.1,77.84L81.1,77.84z"/></g></svg>