<?xml version="1.0" ?><svg style="enable-background:new 0 0 960 960;" version="1.1" viewBox="0 0 960 960" xml:space="preserve" xmlns="http://www.w3.org/2000/svg" xmlns:xlink="http://www.w3.org/1999/xlink"><style type="text/css">
	.st0{display:none;}
	.st1{display:inline;opacity:0.93;}
	.st2{display:inline;fill:none;stroke:#000000;stroke-width:15;stroke-linecap:round;stroke-linejoin:round;stroke-miterlimit:10;}
	.st3{display:inline;}
	.st4{fill:none;stroke:#000000;stroke-width:15;stroke-linecap:round;stroke-linejoin:round;stroke-miterlimit:10;}
	.st5{display:inline;fill:none;stroke:#1A1D3F;stroke-width:15;stroke-linecap:round;stroke-linejoin:round;stroke-miterlimit:10;}
	.st6{fill:#DDEDE7;}
	.st7{fill:#1A1D3F;}
	.st8{fill:#E9B44D;}
	.st9{fill:#ED644E;}
	.st10{fill:#494EDF;}
	.st11{fill:#3DC5A1;}
	.st12{fill:#F6CEC1;}
	.st13{fill:none;}
	.st14{fill:none;stroke:#1A1D3F;stroke-width:15;stroke-linecap:round;stroke-linejoin:round;stroke-miterlimit:10;}
	.st15{display:inline;fill:#E9B44D;}
	.st16{fill:#222222;}
	.st17{display:inline;fill:#222222;}
</style><g class="st0" id="guide"/><g class="st0" id="sketch"/><g class="st0" id="stroke"><path class="st2" d="M153.1,387.9c-42.4,145.7,19.7,316.8,148.3,397.3s313,60,417.4-50.1c56-59,88-138.2,98-218.8   c11.4-92.1-6.1-190.1-61-265C627.9,76.7,379.2,95,239.8,240.2C199.9,281.8,169.3,332.5,153.1,387.9z"/><path class="st2" d="M571.1,581.9c-44.2,3.2-90.8,3.7-135,6.9c-30.8-38.8-46-82.9-68-121.4c34.2-46,65.2-80.1,112.6-112.1   c46.1,29.4,93.8,63.2,132.9,101.3C599.1,490.2,585.7,548.3,571.1,581.9z"/><path class="st2" d="M482.1,235c-0.7,47.6-0.7,72.6-1.4,120.2"/><path class="st2" d="M612.1,455.9c19.5-2.6,72.8-9.5,103.2-9.5"/><path class="st2" d="M571.1,581.9c22.9,29.8,45.2,69.4,68.2,99.2"/><path class="st2" d="M436.1,588.8c-22.7,24.5-44.2,59.7-66.9,84.2"/><path class="st2" d="M368.1,467.4c-25.3,0.2-83.7-0.4-122.9-3.5"/><path class="st2" d="M336.3,168.1c41.4,26.6,96.9,52.1,145.9,66.9c56.5-30.5,109.6-60,151.1-82.9"/><path class="st2" d="M798.3,332.1c-27.8,38.1-55.5,76.2-83.3,114.4c-0.1,0.1-0.2,0.2-0.2,0.3c31.1,40.3,61.6,82.6,91.8,124.3"/><path class="st2" d="M598.7,812.9c13.3-41.9,27.4-91.4,40.6-131.8c39.3,1,77.5,1.9,115.8,8.2"/><path class="st2" d="M425.8,830.4c-17.1-47.3-43.7-109.2-60.1-155.5c-65.9,5.6-127.4,9-164,12.2h0"/><path class="st2" d="M175.6,330.8c20.3,39.1,37.3,79.5,68.4,135.2c-32.4,29.1-64.8,58.2-97.2,87.3"/></g><g id="outline"><path d="M297.4,791.6c52.4,32.8,114.9,50.1,179.7,50.1c14.2,0,28.6-0.8,42.9-2.5c80.2-9.4,152.7-44.5,204.2-98.8   c53.7-56.6,89.2-135.8,100-223.1c5.9-47.8,4-96.7-5.7-141.5C808,327.3,789,283.9,761.9,247c-55.8-76.2-138.8-121.6-233.7-127.9   c-107.4-7.1-217.2,36.2-293.7,116c-41.9,43.7-72.5,95.8-88.5,150.8c-21.1,72.3-17.4,153.2,10.2,227.8   C183.9,688.7,234.1,751.9,297.4,791.6z M305.4,778.9c-35.3-22.1-65.7-51.5-90-85.4c14.4-1.1,31.4-2.3,50.5-3.6   c28.6-2,60.9-4.2,94.7-7c8.3,22.8,18.8,49.2,29,74.8c8.5,21.4,17.3,43.4,24.7,63.2C375.2,813.6,338.2,799.5,305.4,778.9z    M592.7,807.1c-23.6,8.3-48.6,14.1-74.4,17.2c-13.8,1.6-27.5,2.4-41.2,2.4c-15.4,0-30.7-1-45.8-3c-8.1-22-18.1-47.2-27.8-71.5   c-10.1-25.4-20.5-51.5-28.7-74c11.6-12.6,23-27.9,33.9-42.7c10.1-13.6,20.5-27.7,30.9-39.3c21.1-1.5,43-2.4,64.3-3.2   c21-0.8,42.7-1.7,63.7-3.2c10.5,14,21.1,30.2,31.3,45.9c10.4,16,21.2,32.5,32,46.9c-6.9,21.3-14,45.1-21,68.2   C604.2,769.6,598.3,789.1,592.7,807.1z M439.6,581c-18.3-23.9-31.1-50.1-43.4-75.4c-6.1-12.5-12.4-25.4-19.2-37.7   c30.7-41,59.5-73.1,103.8-103.7c52.7,33.9,92.3,64,123.9,94.2c-6.7,16.6-13.2,38-19.5,58.6c-6.3,20.5-12.7,41.7-19.2,57.7   c-20.6,1.4-41.9,2.3-62.7,3.1C482.3,578.7,460.6,579.6,439.6,581z M713.3,730c-28.4,29.9-63.5,53.7-102.8,70.2   c4.6-14.8,9.2-30.2,13.8-45.2c6.8-22.4,13.7-45.6,20.4-66.3c33.5,0.9,65.4,1.8,97.4,6.2C733.2,707.4,723.6,719.2,713.3,730z    M751.4,681.1c-36-5.5-71.2-6.5-108.3-7.4c-10.6-14.1-21.2-30.4-31.6-46.3c-10.4-15.9-21-32.2-31.8-46.6   c6.8-16.7,13.4-38.4,19.8-59.4c6.4-21,13-42.7,19.7-58.9c41-5.3,71.8-8.2,91.6-8.6c29.7,38.5,59,79.1,87.5,118.5   C787.9,612,772,648.8,751.4,681.1z M803.9,379c9.3,43.1,11.2,90.3,5.5,136.4c-1.6,12.8-3.7,25.4-6.4,37.9   c-25.7-35.6-52.1-71.9-78.8-106.7c12.8-17.5,25.6-35.1,38.3-52.6c11.1-15.2,22.2-30.5,33.3-45.7C798.9,358.3,801.6,368.5,803.9,379   z M648.9,167.9c39.5,20.9,73.5,50.4,100.9,87.9c16.5,22.6,29.9,47.7,40.1,75.1c-13.2,18.1-26.3,36.2-39.5,54.2   c-13.1,17.9-26.1,35.9-39.2,53.8c-20.7,0.4-52.8,3.4-95.7,8.9c-32.5-31.1-73.1-62-127.2-96.8c0.3-21.8,0.5-39.2,0.6-56   c0.2-16.7,0.3-34,0.6-55.7c45.7-24.7,89.8-49.1,125.5-68.8c6.4-3.5,12.5-6.9,18.5-10.2C638.8,162.8,643.9,165.3,648.9,167.9z    M505.1,133.3c7.4,0,14.7,0.2,22.1,0.7c31.1,2.1,60.8,8.5,88.7,19c-2.7,1.5-5.3,2.9-8.1,4.5c-35.9,19.9-80.5,44.5-126.5,69.4   c-43-13.3-91.3-35-129.8-58.2C399.7,145.7,452.4,133.3,505.1,133.3z M245.3,245.4c26.6-27.7,57.3-50.8,90.6-68.7   c39.9,25.1,92.2,49.2,138.7,63.8c-0.3,21.2-0.5,38.1-0.6,54.5c-0.2,16.9-0.4,34.3-0.6,56.2c-46.7,32.1-77.7,66.9-109,108.7   c-28.1,0.2-81-0.6-117-3.4c-18-32.5-31.3-60.1-43.1-84.7c-6.9-14.2-13.4-27.7-20.2-41.1C199.8,300.1,220.5,271.3,245.3,245.4z    M160.3,390c4.2-14.3,9.4-28.4,15.5-42.2c5,9.9,9.8,20,14.9,30.5c12,24.9,25.5,52.9,43.8,86c-27.6,24.7-55.1,49.5-82.7,74.2   C144,489.3,146.2,438.3,160.3,390z M248.9,471.7c33.3,2.4,79.4,3.2,108.2,3.2c2.4,0,4.6,0,6.7,0c6.6,11.9,12.7,24.3,19,37.3   c12.4,25.4,25.1,51.7,43.7,76.3c-10.1,11.6-20.1,25-29.7,38c-10.6,14.3-21.6,29.2-32.5,41c-35.5,3-69.4,5.4-99.4,7.4   c-23,1.6-43.1,3-59.2,4.3c-24.1-37.3-41.4-79.5-50.6-123.3C186.3,527.8,217.6,499.8,248.9,471.7z"/></g><g class="st0" id="flat"><g class="st3"><g><g><g><g><g><g><g><path class="st6" d="M153.1,387.9c-42.4,145.7,19.7,316.8,148.3,397.3s313,60,417.4-50.1c56-59,88-138.2,98-218.8           c11.4-92.1-6.1-190.1-61-265C627.9,76.7,379.2,95,239.8,240.2C199.9,281.8,169.3,332.5,153.1,387.9z"/></g></g></g></g></g></g></g><g><g><g><g><g><g><g><path class="st7" d="M798.3,332.1C798.3,332.1,798.3,332.1,798.3,332.1c-1-2.7-2-5.4-3.1-8.1           c-13.8,18.9-31.3,42.6-44.9,61.2c-13.1,17.9-26.1,35.9-39.2,53.8c-20.9,0.4-53,3.4-95.7,9c-32.5-31.1-73.1-62-127.2-96.8           c0.3-21.8,0.5-39.2,0.6-56c0.2-16.7,0.4-34,0.6-55.7c45.7-24.7,89.8-49.1,125.5-68.8c7.6-4.2,14.8-8.2,21.8-12           c1.1-0.6,2.9-1.6,4.8-2.7c-2.8-1.3-5.6-2.6-8.5-3.9c0,0,0,0,0,0c0,0,0,0,0,0c-2.9-1.3-5.8-2.5-8.8-3.7c0,0,0,0,0,0           c-89-35.8-192.1-27.8-280.4,15.8c0,0,0,0,0,0c-0.3,0.2-0.7,0.3-1,0.5c-1.9,1-3.9,1.9-5.8,2.9c-2.8,1.5-5.6,2.9-8.4,4.5           c1.6,1.1,2.8,1.9,3.4,2.3c40.4,26,94.4,51,142.3,66.1c-0.3,21.2-0.5,38.1-0.6,54.5c-0.2,16.9-0.4,34.3-0.6,56.2           c-46.7,32.1-77.7,66.9-109,108.7c-28,0.2-80.9-0.6-117-3.4c-18-32.5-31.3-60.2-43.1-84.7c-6.2-12.8-16.8-33.9-24.6-48.9           c-1.4,2.6-2.8,5.3-4.1,7.9c0,0,0,0,0,0c-1.4,2.7-2.7,5.5-4,8.2c0,0.1-0.1,0.1-0.1,0.2c0,0,0,0,0,0           c-7.4,15.7-13.6,32-18.4,48.7c-15.6,53.6-17.1,110.6-6.3,165.3c0,0,0,0,0,0c0.5,2.7,1.1,5.4,1.7,8.1l4.6-3.7           c31.9-28.6,63.8-57.3,95.7-85.9c33.3,2.4,79.2,3.2,108,3.2c2.4,0,4.7,0,6.9,0c6.6,11.9,12.6,24.3,19,37.3           c12.4,25.4,25.1,51.7,43.7,76.3c-10.1,11.6-20.1,25-29.7,38c-10.6,14.3-21.5,29.1-32.5,41c-35.5,3-69.4,5.4-99.4,7.4           c-25.2,1.7-46.9,3.2-63.6,4.7c-1.1,0.1-2.5,0.2-4.1,0.3c1.5,2.4,3.1,4.8,4.6,7.2c0,0,0,0,0,0c26,39.2,59.6,73,99.7,98.2           c36.3,22.7,77,37.4,119.1,44.3c0.9,0.2,1.8,0.3,2.8,0.4c0.9,0.1,1.7,0.3,2.6,0.4c0,0,0,0,0,0c2.8,0.4,5.6,0.8,8.4,1.1           c-0.5-1.5-1-2.8-1.3-3.7c-8.3-23-19-49.8-29.3-75.7c-10.1-25.4-20.5-51.5-28.7-74c11.6-12.5,23-27.9,33.9-42.7           c10.1-13.7,20.5-27.8,30.9-39.3c21.1-1.5,43-2.4,64.3-3.2c21-0.8,42.7-1.7,63.7-3.2c10.5,14,21.1,30.2,31.3,45.9           c10.4,16,21.2,32.5,32,46.9c-6.9,21.3-14,45.1-21,68.2c-6.1,20.2-12.4,41-18.4,59.9c-0.4,1.1-1,3.1-1.7,5.4           c3-1,5.9-2,8.9-3.1c0,0,0,0,0,0c0,0,0,0,0,0c2.7-1,5.4-2,8.1-3.1c0.1-0.1,0.3-0.1,0.4-0.2c0.1,0,0.3-0.1,0.4-0.1           c0,0,0,0,0,0c41.8-16.6,80-41.4,111.1-74.3c13.5-14.2,25.6-29.6,36.3-45.9c0,0,0,0,0,0c1.5-2.3,2.9-4.5,4.4-6.8           c-1.4-0.3-2.5-0.5-3.2-0.6c-37.7-6.2-74.4-7.2-113.3-8.2c-10.6-14.1-21.3-30.4-31.6-46.3c-10.4-15.9-21-32.2-31.8-46.6           c6.8-16.7,13.4-38.4,19.8-59.4c6.4-21,13-42.7,19.7-58.9c49.5-6.4,76.8-8.3,91.6-8.6c30,39,64.6,85.8,93.3,125.7           c0.8-2.9,1.6-5.7,2.3-8.6c0,0,0,0,0,0c0.7-2.9,1.4-5.8,2.1-8.7c0.1-0.3,0.1-0.6,0.2-0.8c0,0,0,0,0,0           c3.4-14.9,6.1-29.9,8-45.1C824.5,454.7,819.1,390.3,798.3,332.1z"/></g></g></g></g></g></g></g></g></g><g class="st0" id="colored_x5F_line"><g class="st3"><path class="st8" d="M153.1,387.9c-42.4,145.7,19.7,316.8,148.3,397.3s313,60,417.4-50.1c56-59,88-138.2,98-218.8    c11.4-92.1-6.1-190.1-61-265C627.9,76.7,379.2,95,239.8,240.2C199.9,281.8,169.3,332.5,153.1,387.9z"/></g><g class="st3"><path class="st16" d="M798.3,332.1C798.3,332.1,798.3,332.1,798.3,332.1c-1-2.7-2-5.4-3.1-8.1c-13.8,18.9-31.3,42.6-44.9,61.2    c-13.1,17.9-26.1,35.9-39.2,53.8c-20.9,0.4-53,3.4-95.7,9c-32.5-31.1-73.1-62-127.2-96.8c0.3-21.8,0.5-39.2,0.6-56    c0.2-16.7,0.4-34,0.6-55.7c45.7-24.7,89.8-49.1,125.5-68.8c7.6-4.2,14.8-8.2,21.8-12c1.1-0.6,2.9-1.6,4.8-2.7    c-2.8-1.3-5.6-2.6-8.5-3.9c0,0,0,0,0,0c0,0,0,0,0,0c-2.9-1.3-5.8-2.5-8.8-3.7c0,0,0,0,0,0c-89-35.8-192.1-27.8-280.4,15.8    c0,0,0,0,0,0c-0.3,0.2-0.7,0.3-1,0.5c-1.9,1-3.9,1.9-5.8,2.9c-2.8,1.5-5.6,2.9-8.4,4.5c1.6,1.1,2.8,1.9,3.4,2.3    c40.4,26,94.4,51,142.3,66.1c-0.3,21.2-0.5,38.1-0.6,54.5c-0.2,16.9-0.4,34.3-0.6,56.2c-46.7,32.1-77.7,66.9-109,108.7    c-28,0.2-80.9-0.6-117-3.4c-18-32.5-31.3-60.2-43.1-84.7c-6.2-12.8-16.8-33.9-24.6-48.9c-1.4,2.6-2.8,5.3-4.1,7.9c0,0,0,0,0,0    c-1.4,2.7-2.7,5.5-4,8.2c0,0.1-0.1,0.1-0.1,0.2c0,0,0,0,0,0c-7.4,15.7-13.6,32-18.4,48.7c-15.6,53.6-17.1,110.6-6.3,165.3    c0,0,0,0,0,0c0.5,2.7,1.1,5.4,1.7,8.1l4.6-3.7c31.9-28.6,63.8-57.3,95.7-85.9c33.3,2.4,79.2,3.2,108,3.2c2.4,0,4.7,0,6.9,0    c6.6,11.9,12.6,24.3,19,37.3c12.4,25.4,25.1,51.7,43.7,76.3c-10.1,11.6-20.1,25-29.7,38c-10.6,14.3-21.5,29.1-32.5,41    c-35.5,3-69.4,5.4-99.4,7.4c-25.2,1.7-46.9,3.2-63.6,4.7c-1.1,0.1-2.5,0.2-4.1,0.3c1.5,2.4,3.1,4.8,4.6,7.2c0,0,0,0,0,0    c26,39.2,59.6,73,99.7,98.2c36.3,22.7,77,37.4,119.1,44.3c0.9,0.2,1.8,0.3,2.8,0.4c0.9,0.1,1.7,0.3,2.6,0.4c0,0,0,0,0,0    c2.8,0.4,5.6,0.8,8.4,1.1c-0.5-1.5-1-2.8-1.3-3.7c-8.3-23-19-49.8-29.3-75.7c-10.1-25.4-20.5-51.5-28.7-74    c11.6-12.5,23-27.9,33.9-42.7c10.1-13.7,20.5-27.8,30.9-39.3c21.1-1.5,43-2.4,64.3-3.2c21-0.8,42.7-1.7,63.7-3.2    c10.5,14,21.1,30.2,31.3,45.9c10.4,16,21.2,32.5,32,46.9c-6.9,21.3-14,45.1-21,68.2c-6.1,20.2-12.4,41-18.4,59.9    c-0.4,1.1-1,3.1-1.7,5.4c3-1,5.9-2,8.9-3.1c0,0,0,0,0,0c0,0,0,0,0,0c2.7-1,5.4-2,8.1-3.1c0.1-0.1,0.3-0.1,0.4-0.2    c0.1,0,0.3-0.1,0.4-0.1c0,0,0,0,0,0c41.8-16.6,80-41.4,111.1-74.3c13.5-14.2,25.6-29.6,36.3-45.9c0,0,0,0,0,0    c1.5-2.3,2.9-4.5,4.4-6.8c-1.4-0.3-2.5-0.5-3.2-0.6c-37.7-6.2-74.4-7.2-113.3-8.2c-10.6-14.1-21.3-30.4-31.6-46.3    c-10.4-15.9-21-32.2-31.8-46.6c6.8-16.7,13.4-38.4,19.8-59.4c6.4-21,13-42.7,19.7-58.9c49.5-6.4,76.8-8.3,91.6-8.6    c30,39,64.6,85.8,93.3,125.7c0.8-2.9,1.6-5.7,2.3-8.6c0,0,0,0,0,0c0.7-2.9,1.4-5.8,2.1-8.7c0.1-0.3,0.1-0.6,0.2-0.8c0,0,0,0,0,0    c3.4-14.9,6.1-29.9,8-45.1C824.5,454.7,819.1,390.3,798.3,332.1z"/></g></g></svg>