<?xml version="1.0" ?><!DOCTYPE svg  PUBLIC '-//W3C//DTD SVG 1.1//EN'  'http://www.w3.org/Graphics/SVG/1.1/DTD/svg11.dtd'><svg enable-background="new 0 0 512 512" height="512px" version="1.1" viewBox="0 0 512 512" width="512px" xml:space="preserve" xmlns="http://www.w3.org/2000/svg" xmlns:xlink="http://www.w3.org/1999/xlink"><g id="Dress"/><g id="ress"><g><path d="M343.001,342.952l0.186,1.108c0.282,1.687,1.743,2.881,3.398,2.881c0.188,0,0.381-0.016,0.573-0.048    c1.879-0.314,3.148-2.092,2.834-3.972l-0.186-1.109c-0.314-1.879-2.086-3.152-3.972-2.833    C343.956,339.294,342.687,341.072,343.001,342.952z"/><path d="M353.143,362.355c-0.295-1.883-2.068-3.158-3.944-2.872c-1.882,0.296-3.168,2.062-2.873,3.943    c6.668,42.401,10.679,76.928,11.934,102.692c-3.243,0.85-9.276,2.393-17.137,4.243c-6.209,1.461-12.538,2.765-18.866,3.909    L300.37,248.184c-0.184-1.896-1.864-3.269-3.767-3.102c-1.896,0.184-3.285,1.869-3.102,3.767l21.933,226.581    c-18.47,2.992-37.267,4.598-55.984,4.782V296.233c0-1.906-1.544-3.45-3.45-3.45c-1.905,0-3.45,1.544-3.45,3.45v183.981    c-18.735-0.166-37.519-1.76-55.946-4.744l21.933-226.583c0.184-1.897-1.205-3.583-3.102-3.767    c-1.898-0.171-3.583,1.205-3.766,3.102l-21.885,226.09c-6.315-1.14-12.598-2.432-18.718-3.87    c-8.007-1.885-14.079-3.452-17.325-4.313c3.885-79.854,33.125-222.079,45.627-280.009c2.169-10.055,3.191-20.369,3.036-30.658    c-0.028-1.905-1.62-3.463-3.501-3.398c-1.905,0.029-3.426,1.597-3.397,3.502c0.146,9.766-0.823,19.557-2.882,29.099    c-12.685,58.776-42.55,204.102-45.902,283.931c-0.066,1.603,0.979,3.039,2.523,3.47c0.078,0.021,7.902,2.189,20.242,5.093    c7.366,1.732,14.957,3.268,22.562,4.566c0.107,0.025,0.216,0.041,0.326,0.056c20.859,3.563,42.202,5.37,63.448,5.37    c0.059,0,0.121,0,0.179,0c21.281-0.011,42.704-1.831,63.672-5.412c0.104-0.015,0.207-0.029,0.308-0.053    c7.606-1.301,15.25-2.85,22.722-4.607c12.116-2.852,19.959-4.988,20.037-5.01c1.553-0.424,2.605-1.864,2.537-3.473    C364.174,442.295,360.091,406.551,353.143,362.355z"/><path d="M196.417,131.39c-1.877,0.327-3.134,2.112-2.808,3.99c0.088,0.514,0.175,1.028,0.258,1.542    c0.274,1.696,1.739,2.901,3.402,2.901c0.183,0,0.367-0.014,0.554-0.044c1.881-0.305,3.16-2.074,2.856-3.955    c-0.088-0.544-0.179-1.085-0.273-1.625C200.082,132.322,198.297,131.065,196.417,131.39z"/><path d="M189.394,115.776c0.358,1.606,1.784,2.702,3.365,2.702c0.249,0,0.5-0.027,0.752-0.083c1.86-0.413,3.033-2.257,2.62-4.117    L180.507,44l31.942-11.151c0.154,0.672,0.318,1.353,0.491,2.038c0.002,0.008,0.003,0.015,0.005,0.022    c0,0.001,0.001,0.001,0.001,0.002c0.644,2.567,1.394,5.146,2.228,7.658c0.368,1.113,0.746,2.215,1.142,3.302    c0.57,1.569,1.122,3.005,1.685,4.383c0.001,0.002,0.001,0.003,0.001,0.005c0.005,0.013,0.011,0.024,0.016,0.038    c0.394,0.969,0.807,1.936,1.18,2.786c0.001,0.004,0.003,0.008,0.005,0.012c0.017,0.038,0.032,0.077,0.049,0.115    c0.003,0.007,0.007,0.013,0.01,0.02c0.121,0.294,0.246,0.583,0.383,0.87c0.173,0.404,0.354,0.798,0.526,1.17    c0.784,1.722,1.596,3.406,2.405,4.984c0.715,1.422,1.517,2.933,2.45,4.615c0.021,0.037,0.043,0.076,0.064,0.113    c0.007,0.01,0.012,0.021,0.019,0.031c0.546,0.982,1.103,1.945,1.66,2.896c0,0,0,0,0.001,0.001    c0.002,0.003,0.004,0.007,0.006,0.011c0.992,1.68,2.028,3.368,3.08,5.021c0.004,0.005,0.008,0.01,0.011,0.016    c0.164,0.254,0.327,0.5,0.491,0.745l0.058,0.089c0.393,0.598,0.789,1.188,1.185,1.779c0.206,0.305,0.406,0.62,0.614,0.922    c0.001,0.001,0.002,0.002,0.003,0.003c0.6,0.87,1.19,1.722,1.767,2.537c0.496,0.705,0.992,1.388,1.482,2.062l0.198,0.27    c0.017,0.023,0.034,0.047,0.051,0.07c0.001,0.001,0.002,0.002,0.003,0.004l0.029,0.039c0.303,0.397,0.596,0.786,0.898,1.198    c0.506,0.677,1.012,1.332,1.511,1.976l0.178,0.229c0.031,0.041,0.063,0.08,0.096,0.118c0.072,0.093,0.144,0.181,0.216,0.273    c0.773,0.987,1.534,1.939,2.284,2.846c0.001,0.001,0.002,0.001,0.003,0.003c1.229,1.499,2.504,2.995,3.908,4.584    c0.021,0.024,0.041,0.046,0.062,0.069c0.704,0.802,1.39,1.566,2.045,2.262h0.001c0.006,0.007,0.012,0.014,0.018,0.021l0.636,0.684    c0.094,0.1,0.175,0.185,0.267,0.282c0.22,0.234,0.442,0.472,0.654,0.693l0.288,0.302c0.005,0.006,0.011,0.012,0.016,0.018    c0,0,0.001,0,0.001,0.001c0.596,0.626,1.151,1.201,1.663,1.702c0.006,0.006,0.014,0.011,0.021,0.017l0.854,0.858    c0.002,0.002,0.003,0.004,0.005,0.006l0.289,0.285c0.002,0.002,0.005,0.004,0.007,0.007c0.087,0.094,0.206,0.206,0.303,0.29    l0.396,0.379c0.128,0.127,0.249,0.242,0.363,0.349l0.085,0.082c0.02,0.019,0.103,0.095,0.124,0.113l0.146,0.134    c0.244,0.235,0.436,0.411,0.556,0.519c0.2,0.188,0.421,0.339,0.65,0.47c0.003,0.002,0.005,0.005,0.008,0.006    c0.006,0.004,0.014,0.005,0.021,0.009c0.247,0.139,0.505,0.241,0.772,0.314c0.022,0.006,0.043,0.013,0.065,0.019    c0.279,0.07,0.562,0.119,0.848,0.119c0.375,0,0.747-0.071,1.106-0.192c0.005-0.002,0.011-0.003,0.016-0.005    c0.153-0.053,0.3-0.121,0.445-0.195c0.038-0.02,0.076-0.036,0.114-0.058c0.127-0.071,0.248-0.154,0.368-0.243    c0.029-0.021,0.062-0.037,0.091-0.061c0.043-0.033,0.082-0.071,0.124-0.105c0.032-0.028,0.068-0.048,0.1-0.077    c0.117-0.104,0.304-0.276,0.538-0.502l0.164-0.15c0.001-0.001,0.121-0.112,0.123-0.113l0.098-0.094    c0.105-0.099,0.217-0.204,0.334-0.32l0.416-0.398c0.104-0.089,0.201-0.182,0.293-0.282c0.004-0.004,0.009-0.008,0.013-0.012    l0.294-0.291l0.854-0.857c0.007-0.007,0.015-0.011,0.021-0.018c0.513-0.501,1.066-1.074,1.661-1.701    c0.001-0.001,0.002-0.003,0.003-0.004c0.003-0.003,0.006-0.006,0.008-0.009c0.003-0.002,0.005-0.004,0.007-0.007l0.292-0.305    c0.309-0.32,0.628-0.655,0.947-1.006c0.001-0.001,0.002-0.002,0.002-0.003l0.619-0.664c0.001-0.001,0.002-0.002,0.004-0.003    c0.649-0.69,1.328-1.447,2.026-2.242c0.03-0.033,0.058-0.063,0.088-0.098c1.401-1.587,2.682-3.089,3.916-4.596    c0.062-0.075,0.126-0.155,0.188-0.231c0.716-0.867,1.438-1.771,2.176-2.715c0.044-0.056,0.087-0.108,0.131-0.165    c0.029-0.035,0.059-0.07,0.087-0.107l0.142-0.184c0.462-0.595,0.929-1.201,1.407-1.837c0.048-0.064,0.096-0.124,0.143-0.188    c0.003-0.004,0.004-0.007,0.006-0.011c0.004-0.004,0.006-0.007,0.009-0.011c0.28-0.382,0.569-0.765,0.909-1.212    c0.001-0.001,0.002-0.002,0.003-0.004c0.005-0.006,0.01-0.013,0.015-0.02c0.001-0.002,0.002-0.003,0.004-0.005l0.174-0.238    c0.509-0.699,1.024-1.407,1.537-2.136c0.574-0.813,1.161-1.658,1.771-2.542c0.001-0.002,0.002-0.003,0.003-0.004    c0.617-0.896,1.226-1.803,1.781-2.677c0.189-0.283,0.379-0.566,0.568-0.861c0.003-0.004,0.006-0.009,0.009-0.013    c1.048-1.645,2.083-3.333,3.087-5.032c0.558-0.951,1.113-1.914,1.66-2.896c0.008-0.014,0.016-0.027,0.022-0.041    c0.021-0.034,0.04-0.068,0.06-0.104c0.466-0.841,0.899-1.639,1.305-2.402c0.407-0.766,0.787-1.5,1.146-2.212    c0.001-0.002,0.001-0.004,0.003-0.005c0.814-1.593,1.623-3.268,2.392-4.958c0.183-0.393,0.363-0.787,0.536-1.19    c0.16-0.332,0.305-0.661,0.406-0.918c0.419-0.958,0.836-1.936,1.23-2.908c0.002-0.005,0.004-0.01,0.006-0.014    c0.001-0.001,0.001-0.002,0.001-0.003c0,0,0,0,0.001-0.001c0.564-1.384,1.115-2.818,1.683-4.381    c0.399-1.093,0.776-2.195,1.143-3.303c0.837-2.521,1.587-5.1,2.229-7.66c0.18-0.713,0.345-1.398,0.497-2.064L331.492,44    l-18.679,84.027c-4.279,19.277-4.341,38.822-0.182,58.094c7.186,33.298,17.699,84.105,26.981,137.052    c0.294,1.675,1.75,2.855,3.394,2.855c0.198,0,0.398-0.018,0.6-0.053c1.878-0.329,3.132-2.116,2.804-3.993    c-9.303-53.058-19.836-103.958-27.033-137.317c-3.947-18.291-3.889-36.843,0.173-55.141l19.345-87.021    c0.379-1.708-0.58-3.43-2.23-4.006l-38.481-13.434c-0.015-0.005-0.029-0.006-0.044-0.011c-0.016-0.006-0.028-0.015-0.043-0.02    c-0.124-0.042-0.252-0.055-0.379-0.081c-0.082-0.017-0.162-0.042-0.244-0.053c-0.166-0.021-0.33-0.021-0.496-0.017    c-0.067,0.001-0.135-0.003-0.201,0.002c-0.161,0.013-0.318,0.043-0.478,0.078c-0.064,0.015-0.13,0.025-0.193,0.044    c-0.175,0.049-0.341,0.113-0.508,0.188c-0.027,0.013-0.056,0.024-0.083,0.038c-0.094,0.045-0.193,0.077-0.284,0.131    c-0.73,0.429-1.26,1.141-1.521,1.944C290.836,32.933,276.074,38.69,256,38.69c-20.033,0-34.776-5.735-37.691-11.351    c-0.25-0.854-0.804-1.59-1.583-2.035c-0.86-0.492-1.892-0.59-2.831-0.269l-0.059,0.021c-0.004,0.001-0.008,0.004-0.012,0.005    c-0.002,0.001-0.004,0.001-0.007,0.002l-38.481,13.434c-1.651,0.576-2.61,2.298-2.23,4.006L189.394,115.776z M256,45.59    c14.05,0,26.605-2.689,34.863-7.074c-0.196,0.631-0.382,1.266-0.589,1.891c-0.345,1.045-0.7,2.08-1.076,3.111    c-0.54,1.488-1.062,2.846-1.596,4.154c-0.001,0.003-0.002,0.006-0.003,0.008c0,0.001-0.001,0.002-0.002,0.003    c-0.37,0.921-0.75,1.822-1.147,2.714c0,0.001,0,0.001,0,0.001c-0.018,0.041-0.034,0.079-0.052,0.12    c-0.088,0.221-0.183,0.434-0.287,0.647c-0.025,0.052-0.05,0.105-0.072,0.159c-0.154,0.362-0.316,0.715-0.489,1.089    c-0.739,1.624-1.505,3.211-2.288,4.737c-0.333,0.663-0.688,1.349-1.068,2.064c-0.188,0.356-0.404,0.746-0.607,1.119    c-0.201,0.371-0.39,0.727-0.605,1.116c-0.045,0.075-0.088,0.151-0.129,0.229c-0.518,0.93-1.047,1.843-1.575,2.746    c0,0.001-0.001,0.002-0.001,0.002c-0.941,1.595-1.92,3.19-2.91,4.744c-0.126,0.183-0.245,0.365-0.363,0.549l-0.187,0.287    c-0.377,0.574-0.748,1.126-1.12,1.683c-0.196,0.292-0.388,0.593-0.586,0.881c-0.001,0.001-0.001,0.002-0.002,0.003    c-0.586,0.851-1.162,1.681-1.73,2.487c-0.55,0.778-1.088,1.528-1.636,2.269c-0.001,0-0.001,0.001-0.001,0.001    c-0.319,0.419-0.629,0.83-0.914,1.218c-0.492,0.66-0.985,1.297-1.472,1.923l-0.113,0.146c-0.021,0.026-0.042,0.053-0.062,0.079    c-0.004,0.005-0.008,0.008-0.012,0.012c-0.824,1.057-1.64,2.064-2.424,3.023c-1.177,1.437-2.402,2.875-3.739,4.387    c-0.688,0.775-1.347,1.5-1.92,2.127c-0.017,0.018-0.034,0.038-0.051,0.056c-0.001,0.001-0.001,0.001-0.001,0.002    c-0.127,0.133-0.252,0.268-0.375,0.401l-0.299,0.322c-0.386,0.412-0.754,0.8-1.104,1.168c-0.021,0.021-0.04,0.043-0.061,0.064    l-0.001,0.001c-0.007,0.007-0.014,0.015-0.021,0.022c-0.037,0.039-0.07,0.073-0.107,0.112c-0.354,0.37-0.697,0.718-1.016,1.042    L256,94.493l-1.026-1.033c-0.32-0.324-0.664-0.674-1.015-1.04c-0.044-0.047-0.085-0.089-0.13-0.137    c-0.002-0.002-0.003-0.003-0.005-0.005c-0.005-0.005-0.01-0.01-0.015-0.015c-0.001-0.001-0.001-0.002-0.002-0.003l-0.124-0.13    c-0.134-0.142-0.272-0.286-0.413-0.436c-0.091-0.095-0.183-0.193-0.275-0.291c-0.125-0.133-0.247-0.262-0.378-0.402l-0.27-0.29    c-0.131-0.143-0.264-0.287-0.346-0.372c-0.633-0.691-1.305-1.432-1.999-2.212c-1.345-1.521-2.57-2.959-3.746-4.395    c-0.785-0.96-1.601-1.968-2.424-3.024c-0.005-0.006-0.011-0.01-0.015-0.016c-0.016-0.02-0.031-0.039-0.047-0.059l-0.161-0.207    c-0.472-0.611-0.953-1.23-1.432-1.872c-0.306-0.418-0.622-0.837-0.9-1.2l-0.093-0.128c-0.474-0.644-0.944-1.298-1.418-1.969    c-0.049-0.069-0.097-0.133-0.146-0.202c-0.566-0.801-1.143-1.632-1.716-2.464c-0.574-0.845-1.147-1.71-1.734-2.605L236,69.726    c-0.118-0.185-0.238-0.369-0.364-0.552c-0.998-1.567-1.98-3.169-2.913-4.748c-0.533-0.91-1.065-1.83-1.587-2.768    c0-0.001,0-0.001,0-0.001c-0.037-0.069-0.074-0.138-0.115-0.205c-0.224-0.405-0.421-0.774-0.63-1.159    c-0.196-0.362-0.405-0.74-0.59-1.088c-0.229-0.431-0.432-0.831-0.643-1.241c-0.142-0.275-0.295-0.564-0.432-0.834    c-0.771-1.506-1.537-3.093-2.286-4.739c-0.163-0.352-0.326-0.704-0.479-1.066c-0.022-0.053-0.046-0.104-0.07-0.154    c-0.104-0.214-0.199-0.427-0.329-0.746c-0.395-0.904-0.789-1.827-1.167-2.758c-0.533-1.303-1.055-2.66-1.596-4.154    c-0.375-1.025-0.729-2.063-1.074-3.107c0-0.001,0-0.001,0-0.002s-0.001-0.002-0.001-0.003c-0.207-0.622-0.392-1.255-0.586-1.884    C229.395,42.9,241.95,45.59,256,45.59z"/></g></g></svg>